M48
;GenerationSoftware,Autodesk,EAGLE,9.3.2*%
;CreationDate,2019-07-11T11:56:11Z*%
FMAT,2
ICI,OFF
METRIC,TZ,000.000
T6C0.350
T5C0.610
T4C0.813
T3C1.000
T2C1.016
T1C3.200
%
G90
M71
T1
X149860Y24330
X149860Y49330
T2
X17780Y92710
X110490Y92710
X58420Y92710
X55880Y92710
X53340Y92710
X39370Y92710
X78740Y92710
X76200Y92710
X41910Y92710
X41910Y90170
X39370Y90170
X36830Y92710
X36830Y90170
X34290Y92710
X34290Y90170
X31750Y92710
X31750Y90170
X29210Y92710
X29210Y90170
X26670Y92710
X26670Y90170
X24130Y92710
X24130Y90170
X113030Y92710
X107950Y92710
X105410Y92710
X102870Y92710
X100330Y92710
X97790Y92710
X95250Y92710
T3
X147320Y41150
X147320Y38860
X152400Y31990
X152400Y34280
X152400Y36570
X152400Y38860
X152400Y41150
X149860Y33130
X149860Y35420
X149860Y37710
X149860Y40000
X149860Y42290
X147320Y31990
X147320Y34280
X147320Y36570
T4
X53340Y21590
X13970Y36830
X13970Y39370
X21590Y31750
X21590Y34290
X21590Y36830
X21590Y39370
X21590Y41910
X21590Y44450
X21590Y46990
X21590Y49530
X13970Y82550
X13970Y80010
X13970Y67310
X13970Y64770
X13970Y77470
X13970Y74930
X13970Y69850
X13970Y72390
X21590Y64770
X21590Y67310
X21590Y69850
X21590Y72390
X21590Y74930
X21590Y77470
X21590Y80010
X21590Y82550
X31750Y17780
X31750Y15240
X31750Y2540
X39370Y2540
X31750Y12700
X31750Y10160
X31750Y5080
X31750Y7620
X39370Y5080
X39370Y7620
X39370Y10160
X39370Y12700
X39370Y15240
X39370Y17780
X69850Y5080
X67310Y5080
X58420Y5080
X55880Y5080
X52070Y8890
X52070Y1270
X63500Y8890
X63500Y1270
X102870Y46990
X158750Y72390
X158750Y69850
X68580Y16510
X68580Y19050
X68580Y21590
X68580Y24130
X68580Y26670
X68580Y29210
X68580Y31750
X68580Y34290
X68580Y36830
X68580Y39370
X68580Y41910
X68580Y44450
X68580Y46990
X68580Y49530
X53340Y49530
X53340Y46990
X53340Y44450
X53340Y41910
X53340Y39370
X53340Y36830
X53340Y34290
X53340Y31750
X53340Y29210
X53340Y26670
X53340Y24130
X53340Y19050
X53340Y16510
X15240Y17780
X15240Y15240
X15240Y2540
X22860Y2540
X15240Y12700
X15240Y10160
X15240Y5080
X15240Y7620
X22860Y5080
X22860Y7620
X22860Y10160
X22860Y12700
X22860Y15240
X22860Y17780
X138430Y82550
X138430Y80010
X138430Y67310
X146050Y67310
X138430Y77470
X138430Y74930
X138430Y69850
X138430Y72390
X146050Y69850
X146050Y72390
X146050Y74930
X146050Y77470
X146050Y80010
X146050Y82550
X83820Y16510
X83820Y13970
X83820Y1270
X91440Y1270
X83820Y11430
X83820Y8890
X83820Y3810
X83820Y6350
X91440Y3810
X91440Y6350
X91440Y8890
X91440Y11430
X91440Y13970
X91440Y16510
X102870Y82550
X102870Y80010
X102870Y67310
X102870Y64770
X102870Y77470
X102870Y74930
X102870Y69850
X102870Y72390
X110490Y64770
X110490Y67310
X110490Y69850
X110490Y72390
X110490Y74930
X110490Y77470
X110490Y80010
X110490Y82550
X102870Y49530
X102870Y34290
X102870Y31750
X102870Y44450
X102870Y41910
X102870Y36830
X102870Y39370
X102870Y29210
X102870Y26670
X110490Y26670
X110490Y29210
X110490Y31750
X110490Y34290
X110490Y36830
X110490Y39370
X110490Y41910
X110490Y44450
X110490Y46990
X110490Y49530
X83820Y49530
X83820Y46990
X83820Y34290
X83820Y31750
X83820Y44450
X83820Y41910
X83820Y36830
X83820Y39370
X83820Y29210
X83820Y26670
X91440Y26670
X91440Y29210
X91440Y31750
X91440Y34290
X91440Y36830
X91440Y39370
X91440Y41910
X91440Y44450
X91440Y46990
X91440Y49530
X66040Y82550
X66040Y80010
X66040Y67310
X66040Y64770
X66040Y77470
X66040Y74930
X66040Y69850
X66040Y72390
X66040Y62230
X66040Y59690
X73660Y59690
X73660Y62230
X73660Y64770
X73660Y67310
X73660Y69850
X73660Y72390
X73660Y74930
X73660Y77470
X73660Y80010
X73660Y82550
X49530Y82550
X49530Y80010
X39370Y64770
X49530Y64770
X49530Y77470
X49530Y74930
X49530Y69850
X49530Y72390
X49530Y62230
X49530Y59690
X57150Y59690
X57150Y62230
X57150Y64770
X57150Y67310
X57150Y69850
X57150Y72390
X57150Y74930
X57150Y77470
X57150Y80010
X57150Y82550
X83820Y82550
X83820Y80010
X83820Y67310
X83820Y64770
X83820Y77470
X83820Y74930
X83820Y69850
X83820Y72390
X83820Y62230
X83820Y59690
X91440Y59690
X91440Y62230
X91440Y64770
X91440Y67310
X91440Y69850
X91440Y72390
X91440Y74930
X91440Y77470
X91440Y80010
X91440Y82550
X49530Y67310
X156210Y69850
X156210Y62230
X156210Y80010
X156210Y72390
X151130Y3810
X151130Y11430
X142240Y3810
X142240Y11430
X146050Y6350
X147955Y7620
X146050Y8890
X120650Y82550
X120650Y80010
X120650Y67310
X120650Y64770
X120650Y77470
X120650Y74930
X120650Y69850
X120650Y72390
X128270Y64770
X128270Y67310
X128270Y69850
X128270Y72390
X128270Y74930
X128270Y77470
X128270Y80010
X128270Y82550
X120650Y16510
X120650Y13970
X120650Y1270
X120650Y-1270
X120650Y11430
X120650Y8890
X120650Y3810
X120650Y6350
X128270Y-1270
X128270Y1270
X128270Y3810
X128270Y6350
X128270Y8890
X128270Y11430
X128270Y13970
X128270Y16510
X120650Y49530
X120650Y46990
X120650Y34290
X120650Y31750
X120650Y44450
X120650Y41910
X120650Y36830
X120650Y39370
X128270Y31750
X128270Y34290
X128270Y36830
X128270Y39370
X128270Y41910
X128270Y44450
X128270Y46990
X128270Y49530
X102870Y16510
X102870Y13970
X102870Y1270
X110490Y1270
X102870Y11430
X102870Y8890
X102870Y3810
X102870Y6350
X110490Y3810
X110490Y6350
X110490Y8890
X110490Y11430
X110490Y13970
X110490Y16510
X31750Y49530
X31750Y46990
X31750Y34290
X31750Y31750
X31750Y44450
X31750Y41910
X31750Y36830
X31750Y39370
X39370Y31750
X39370Y34290
X39370Y36830
X39370Y39370
X39370Y41910
X39370Y44450
X39370Y46990
X39370Y49530
X31750Y82550
X31750Y80010
X31750Y67310
X31750Y64770
X31750Y77470
X31750Y74930
X31750Y69850
X31750Y72390
X39370Y67310
X39370Y69850
X39370Y72390
X39370Y74930
X39370Y77470
X39370Y80010
X39370Y82550
X13970Y49530
X13970Y46990
X13970Y34290
X13970Y31750
X13970Y44450
X13970Y41910
T5
X152400Y73660
X152400Y68580
T6
X107734Y17272
X108382Y16624
X132779Y15761
X104927Y8420
X117450Y15977
X99962Y19647
X97371Y41453
X94564Y44259
X122415Y45987
X80747Y33896
X124142Y52680
X106439Y52680
X93485Y44907
X88087Y15977
X109029Y12738
X107518Y9068
X87008Y17272
X63690Y39294
X64122Y37135
X66065Y35624
X70815Y36919
X65850Y40373
X66497Y38862
X62827Y71247
X62827Y39726
X63043Y37135
X72327Y29578
X62395Y67577
X60884Y39294
X60884Y36703
X65202Y32169
X59804Y63906
X59157Y39294
X56782Y22885
X61963Y63906
X60020Y39726
X60020Y33680
X60884Y29578
X49441Y50305
X62395Y59588
X61747Y39726
X61747Y34760
X61747Y29146
X74270Y37135
X79451Y42316
X46850Y63475
X53759Y50736
X51600Y38430
X20295Y33033
X61747Y58941
X61747Y44475
X22669Y29578
X69088Y57213
X23749Y29578
X62827Y75133
X37567Y45987
X47282Y84201
X36919Y95428
X32817Y88519
X47714Y66281
X45987Y26556
X94996Y75349
X93916Y75349
X43828Y77940
X37998Y48146
X34976Y65850
X42964Y77076
X35408Y43828
X35408Y67361
X24828Y83122
X19431Y84849
X69304Y14033
X48146Y51816
X49873Y28283
X49009Y52680
X52680Y56350
X58293Y39726
X53543Y57213
X49009Y23101
X118313Y1080
X123711Y66065
X59588Y31090
X120688Y19647
X62611Y33465
X63906Y32169
X75565Y33896
X86144Y41453
X87008Y77940
X85928Y74486
X87439Y61747
X87008Y64338
X71895Y57213
X64986Y50305
X64554Y41885
X70168Y57213
M30