M48
;GenerationSoftware,Autodesk,EAGLE,9.3.2*%
;CreationDate,2019-08-19T01:40:46Z*%
FMAT,2
ICI,OFF
METRIC,TZ,000.000
T6C0.350
T5C0.610
T4C0.813
T3C1.000
T2C1.016
T1C3.200
%
G90
M71
T1
X149860Y49330
X149860Y24330
T2
X26670Y92710
X26670Y90170
X24130Y92710
X24130Y90170
X113030Y92710
X110490Y92710
X107950Y92710
X105410Y92710
X102870Y92710
X100330Y92710
X97790Y92710
X95250Y92710
X39370Y92710
X39370Y90170
X36830Y92710
X36830Y90170
X34290Y90170
X31750Y92710
X31750Y90170
X29210Y92710
X29210Y90170
X34290Y92710
X58420Y92710
X55880Y92710
X53340Y92710
X17780Y92710
X78740Y92710
X76200Y92710
X41910Y92710
X41910Y90170
T3
X152400Y31990
X152400Y34280
X152400Y36570
X152400Y38860
X152400Y41150
X149860Y33130
X149860Y35420
X149860Y37710
X149860Y40000
X149860Y42290
X147320Y36570
X147320Y38860
X147320Y41150
X147320Y31990
X147320Y34280
T4
X128270Y1270
X128270Y3810
X128270Y6350
X128270Y8890
X128270Y11430
X128270Y13970
X128270Y16510
X120650Y49530
X120650Y46990
X120650Y34290
X120650Y31750
X120650Y44450
X120650Y41910
X120650Y36830
X120650Y39370
X128270Y31750
X128270Y34290
X128270Y36830
X128270Y39370
X128270Y41910
X128270Y44450
X128270Y46990
X128270Y49530
X102870Y16510
X102870Y13970
X102870Y1270
X110490Y1270
X102870Y11430
X102870Y8890
X102870Y3810
X102870Y6350
X110490Y3810
X110490Y6350
X110490Y8890
X110490Y11430
X110490Y13970
X110490Y16510
X31750Y49530
X31750Y46990
X31750Y34290
X31750Y31750
X31750Y44450
X31750Y41910
X31750Y36830
X31750Y39370
X39370Y31750
X39370Y34290
X39370Y36830
X39370Y39370
X39370Y41910
X39370Y44450
X39370Y46990
X31750Y82550
X31750Y80010
X31750Y67310
X31750Y64770
X31750Y77470
X31750Y74930
X31750Y69850
X31750Y72390
X39370Y64770
X39370Y67310
X39370Y69850
X39370Y72390
X39370Y74930
X39370Y77470
X39370Y80010
X39370Y82550
X13970Y49530
X13970Y46990
X83820Y41910
X13970Y34290
X13970Y31750
X13970Y44450
X13970Y41910
X13970Y36830
X13970Y39370
X21590Y31750
X21590Y34290
X21590Y36830
X21590Y39370
X21590Y41910
X21590Y44450
X21590Y46990
X21590Y49530
X13970Y82550
X13970Y80010
X13970Y67310
X13970Y64770
X13970Y77470
X13970Y74930
X13970Y69850
X13970Y72390
X21590Y64770
X21590Y67310
X21590Y69850
X21590Y72390
X21590Y74930
X21590Y77470
X21590Y80010
X21590Y82550
X31750Y17780
X31750Y15240
X31750Y2540
X39370Y2540
X31750Y12700
X31750Y10160
X31750Y5080
X31750Y7620
X39370Y5080
X39370Y7620
X39370Y10160
X39370Y12700
X39370Y15240
X39370Y17780
X69850Y5080
X67310Y5080
X58420Y5080
X55880Y5080
X52070Y8890
X52070Y1270
X63500Y8890
X63500Y1270
X158750Y72390
X158750Y69850
X68580Y16510
X68580Y19050
X68580Y21590
X68580Y24130
X68580Y26670
X68580Y29210
X68580Y31750
X68580Y34290
X68580Y36830
X68580Y39370
X68580Y41910
X68580Y44450
X68580Y46990
X68580Y49530
X53340Y49530
X53340Y46990
X53340Y44450
X53340Y41910
X53340Y39370
X53340Y36830
X53340Y34290
X53340Y31750
X53340Y29210
X53340Y26670
X53340Y24130
X53340Y21590
X53340Y19050
X53340Y16510
X15240Y17780
X15240Y15240
X15240Y2540
X22860Y2540
X15240Y12700
X15240Y10160
X15240Y5080
X15240Y7620
X22860Y5080
X22860Y7620
X22860Y10160
X22860Y12700
X22860Y15240
X22860Y17780
X138430Y82550
X138430Y80010
X138430Y67310
X146050Y67310
X138430Y77470
X138430Y74930
X138430Y69850
X138430Y72390
X146050Y69850
X146050Y72390
X146050Y74930
X146050Y77470
X146050Y80010
X146050Y82550
X83820Y16510
X83820Y13970
X83820Y1270
X91440Y1270
X83820Y11430
X83820Y8890
X83820Y3810
X83820Y6350
X91440Y3810
X91440Y6350
X91440Y8890
X91440Y11430
X91440Y13970
X91440Y16510
X102870Y82550
X102870Y80010
X102870Y67310
X102870Y64770
X102870Y77470
X102870Y74930
X102870Y69850
X102870Y72390
X110490Y64770
X110490Y67310
X110490Y69850
X110490Y72390
X110490Y74930
X110490Y77470
X110490Y80010
X110490Y82550
X102870Y49530
X102870Y46990
X102870Y34290
X102870Y31750
X102870Y44450
X102870Y41910
X102870Y36830
X102870Y39370
X102870Y29210
X102870Y26670
X110490Y26670
X110490Y29210
X110490Y31750
X110490Y34290
X110490Y36830
X110490Y39370
X110490Y41910
X110490Y44450
X110490Y46990
X110490Y49530
X83820Y49530
X83820Y46990
X83820Y34290
X83820Y31750
X83820Y44450
X39370Y49530
X83820Y36830
X83820Y39370
X83820Y29210
X83820Y26670
X91440Y26670
X91440Y29210
X91440Y31750
X91440Y34290
X91440Y36830
X91440Y39370
X91440Y41910
X91440Y44450
X91440Y46990
X91440Y49530
X66040Y82550
X66040Y80010
X66040Y67310
X66040Y64770
X66040Y77470
X66040Y74930
X66040Y69850
X66040Y72390
X66040Y62230
X66040Y59690
X73660Y59690
X73660Y62230
X73660Y64770
X73660Y67310
X73660Y69850
X73660Y72390
X73660Y74930
X73660Y77470
X73660Y80010
X73660Y82550
X49530Y82550
X49530Y80010
X49530Y67310
X49530Y64770
X49530Y77470
X49530Y74930
X49530Y69850
X49530Y72390
X49530Y62230
X49530Y59690
X57150Y59690
X57150Y62230
X57150Y64770
X57150Y67310
X57150Y69850
X57150Y72390
X57150Y74930
X57150Y77470
X57150Y80010
X57150Y82550
X83820Y82550
X83820Y80010
X83820Y67310
X83820Y64770
X83820Y77470
X83820Y74930
X83820Y69850
X83820Y72390
X83820Y62230
X83820Y59690
X91440Y59690
X91440Y62230
X91440Y64770
X91440Y67310
X91440Y69850
X91440Y72390
X91440Y74930
X91440Y77470
X91440Y80010
X91440Y82550
X156210Y69850
X156210Y62230
X156210Y80010
X156210Y72390
X151130Y3810
X151130Y11430
X142240Y3810
X142240Y11430
X146050Y6350
X147955Y7620
X146050Y8890
X120650Y82550
X120650Y80010
X120650Y67310
X120650Y64770
X120650Y77470
X120650Y74930
X120650Y69850
X120650Y72390
X128270Y64770
X128270Y67310
X128270Y69850
X128270Y72390
X128270Y74930
X128270Y77470
X128270Y80010
X128270Y82550
X120650Y16510
X120650Y13970
X120650Y1270
X120650Y-1270
X120650Y11430
X120650Y8890
X120650Y3810
X120650Y6350
X128270Y-1270
T5
X152400Y73660
X152400Y68580
T6
X127102Y53035
X133807Y48463
X128930Y53645
X42977Y84430
X53035Y84125
X125273Y86563
X115824Y36881
X115824Y56998
X99365Y305
X88087Y15545
X98450Y53645
X107594Y53645
X116738Y83515
X116129Y85344
X107594Y17374
X118262Y-914
X79858Y19507
X99365Y23165
X106680Y23165
X129845Y52730
X86258Y48768
X114910Y52730
X122834Y52730
X132893Y21641
X89002Y49073
X97841Y54559
X114910Y54559
X106680Y19812
X126187Y26822
X128321Y28956
X135941Y51511
X89002Y9449
X106680Y51206
X86868Y15240
X107594Y14935
X124054Y17374
X130454Y19812
X124663Y31090
X106375Y12802
X108814Y7315
X116738Y13716
X116738Y16154
X130454Y49378
X105461Y19812
X128626Y19202
X64618Y42672
X63703Y44806
X80467Y37490
X85649Y35662
X62484Y72238
X62789Y44196
X61874Y44806
X61874Y68885
X94793Y43282
X81382Y39319
X73762Y36271
X93574Y30175
X59131Y60960
X61570Y42062
X61874Y39014
X74676Y34138
X74676Y31699
X56083Y29566
X89916Y20726
X82296Y15240
X68275Y13716
X63094Y28956
X61265Y29566
X72542Y27432
X49987Y45720
X51816Y48463
X93574Y33223
X74676Y24994
X60046Y44196
X53035Y77114
X71933Y44196
X67056Y48158
X61265Y47244
X86868Y33833
X87478Y42367
X45720Y75286
X45720Y71933
X46330Y52121
X46330Y41148
X46025Y31699
X48768Y27127
X45415Y51206
X49378Y37186
X47244Y55169
X49378Y35966
X52121Y60350
X46939Y42062
X46939Y27737
X56693Y13716
X61570Y18593
X49378Y24384
X47854Y39624
X47854Y28651
X21336Y88697
X35052Y34138
X12497Y86258
X37033Y34138
X29566Y87173
X33223Y87173
X34138Y50597
X36271Y59436
X41758Y86868
X17374Y61874
X17678Y81686
X15850Y81686
X15850Y84430
X35357Y50597
X37186Y60046
X36881Y76810
X96317Y71628
X96317Y74676
X104546Y85954
X103022Y63094
X107290Y66142
X101194Y61265
X80467Y56998
X78029Y56998
X48768Y53340
X67666Y61265
X66446Y56998
X51816Y42977
X48463Y35357
X45415Y34747
X69799Y74371
X59131Y73762
X47854Y63703
X44806Y60655
X36576Y42062
X69799Y83210
X54864Y88392
X44196Y75286
X37490Y61265
X28956Y61265
X18288Y49378
X48768Y52121
X37490Y43282
X30480Y93878
X29566Y88392
X24689Y83515
X44806Y62179
X19507Y63703
X49987Y93878
X42977Y85954
X29566Y85954
X61265Y43282
X60960Y56998
X55474Y44806
X57912Y42062
X51511Y25298
X100279Y60350
X114605Y81382
X111557Y61265
X108204Y61265
X112776Y19812
X125882Y19812
X107594Y72542
X108509Y66142
X118567Y60350
X141732Y21031
X47244Y21336
X47854Y18898
X81382Y25603
X99670Y77114
X71018Y44806
X65532Y42062
M30