M48
;GenerationSoftware,Autodesk,EAGLE,9.3.2*%
;CreationDate,2019-07-10T13:10:30Z*%
FMAT,2
ICI,OFF
METRIC,TZ,000.000
T3C0.350
T2C0.813
T1C1.016
%
G90
M71
T1
X10160Y104140
X10160Y106680
X10160Y109220
X10160Y111760
X10160Y114300
X10160Y116840
X10160Y90170
X10160Y87630
X10160Y76200
X10160Y78740
X10160Y81280
X10160Y64770
X10160Y67310
X10160Y69850
X12700Y40640
X12700Y43180
X10160Y40640
X10160Y43180
X12700Y45720
X12700Y48260
X12700Y50800
X12700Y53340
X12700Y55880
X12700Y58420
X10160Y45720
X10160Y48260
X10160Y50800
X10160Y53340
X10160Y55880
X10160Y58420
X10160Y99060
X10160Y101600
T2
X59690Y105410
X58420Y25400
X58420Y27940
X58420Y30480
X58420Y33020
X58420Y35560
X50800Y62230
X50800Y59690
X50800Y46990
X50800Y44450
X50800Y57150
X50800Y54610
X50800Y49530
X50800Y52070
X58420Y44450
X58420Y46990
X58420Y49530
X58420Y52070
X58420Y54610
X58420Y57150
X58420Y59690
X58420Y62230
X26670Y62230
X26670Y59690
X26670Y46990
X26670Y44450
X26670Y57150
X26670Y54610
X26670Y49530
X26670Y52070
X34290Y44450
X34290Y49530
X34290Y52070
X34290Y54610
X34290Y57150
X34290Y59690
X34290Y62230
X34290Y46990
X99060Y49530
X59690Y118110
X59690Y115570
X59690Y102870
X59690Y100330
X59690Y113030
X59690Y110490
X59690Y107950
X67310Y100330
X67310Y102870
X67310Y105410
X67310Y107950
X67310Y110490
X67310Y113030
X67310Y115570
X67310Y118110
X59690Y91440
X59690Y88900
X59690Y76200
X59690Y73660
X59690Y86360
X59690Y83820
X59690Y78740
X59690Y81280
X67310Y73660
X67310Y76200
X67310Y78740
X67310Y81280
X67310Y83820
X67310Y86360
X67310Y88900
X67310Y91440
X43180Y91440
X43180Y88900
X43180Y76200
X50800Y76200
X43180Y86360
X43180Y83820
X43180Y78740
X43180Y81280
X50800Y78740
X50800Y81280
X50800Y83820
X50800Y86360
X50800Y88900
X50800Y91440
X26670Y91440
X26670Y88900
X26670Y76200
X26670Y73660
X26670Y86360
X26670Y83820
X26670Y78740
X26670Y81280
X34290Y73660
X34290Y76200
X34290Y78740
X34290Y81280
X34290Y83820
X34290Y86360
X34290Y88900
X34290Y91440
X26670Y118110
X26670Y115570
X26670Y102870
X26670Y100330
X26670Y113030
X26670Y110490
X26670Y105410
X26670Y107950
X34290Y100330
X34290Y102870
X34290Y105410
X34290Y107950
X34290Y110490
X34290Y113030
X34290Y115570
X34290Y118110
X99060Y119380
X99060Y116840
X99060Y62230
X99060Y59690
X99060Y55880
X99060Y53340
X50800Y17780
X99060Y46990
X99060Y43180
X99060Y40640
X99060Y36830
X99060Y34290
X99060Y30480
X99060Y27940
X99060Y24130
X99060Y21590
X99060Y113030
X99060Y110490
X99060Y106680
X99060Y104140
X99060Y100330
X99060Y97790
X99060Y93980
X99060Y91440
X99060Y87630
X99060Y85090
X99060Y81280
X99060Y78740
X99060Y74930
X99060Y72390
X99060Y68580
X99060Y66040
X86360Y116840
X93980Y116840
X86360Y59690
X93980Y59690
X86360Y53340
X93980Y53340
X86360Y46990
X93980Y46990
X86360Y40640
X93980Y40640
X86360Y34290
X93980Y34290
X86360Y27940
X93980Y27940
X86360Y21590
X93980Y21590
X86360Y110490
X93980Y110490
X86360Y104140
X93980Y104140
X86360Y97790
X93980Y97790
X86360Y91440
X93980Y91440
X86360Y85090
X93980Y85090
X86360Y78740
X93980Y78740
X86360Y72390
X93980Y72390
X86360Y66040
X93980Y66040
X26670Y35560
X26670Y33020
X26670Y20320
X26670Y17780
X26670Y30480
X26670Y27940
X26670Y22860
X26670Y25400
X34290Y17780
X34290Y20320
X34290Y22860
X34290Y25400
X34290Y27940
X34290Y30480
X34290Y33020
X34290Y35560
X50800Y35560
X50800Y33020
X50800Y20320
X50800Y30480
X50800Y27940
X50800Y22860
X50800Y25400
X58420Y17780
X58420Y20320
X58420Y22860
T3
X37884Y84938
X32575Y92900
X37884Y80353
X55258Y74562
X22441Y78181
X21476Y77216
X56705Y43434
X34023Y41745
X29921Y38849
X27267Y38608
X25336Y29197
X25336Y24130
X20993Y28232
X23406Y28232
X41262Y24130
X8446Y38849
X20028Y28232
X10135Y32817
X13754Y29197
X61531Y21958
X64910Y72631
X59601Y39573
X72631Y77457
X69012Y26543
X75044Y79870
X77699Y82525
X14237Y69977
X30886Y39815
X70460Y83490
X94348Y55982
X55016Y29680
X82042Y34265
X56223Y71184
X62497Y34506
X22923Y30162
X64186Y110757
X96520Y79629
X25336Y95555
X27991Y39573
X56705Y42469
X24130Y60808
X29680Y60808
X37884Y58877
X54051Y52603
X23406Y77940
X48501Y28232
X27991Y45606
X74320Y112204
X21958Y62255
X28956Y115824
X87833Y92900
X9893Y63221
X19787Y54775
X39573Y110515
X21234Y92177
X17615Y70942
X17615Y64186
X23406Y52362
X30645Y110515
X70460Y117996
X21958Y96037
X14478Y55982
X58153Y65875
X60566Y65875
X23647Y71184
X55258Y62014
X53569Y63703
X26784Y70218
X48019Y62738
X61531Y64427
M30