M48
;GenerationSoftware,Autodesk,EAGLE,9.3.2*%
;CreationDate,2019-07-22T10:58:14Z*%
FMAT,2
ICI,OFF
METRIC,TZ,000.000
T3C0.350
T2C0.813
T1C1.016
%
G90
M71
T1
X10160Y50800
X12700Y53340
X10160Y53340
X12700Y55880
X10160Y55880
X12700Y58420
X10160Y58420
X10160Y99060
X10160Y101600
X10160Y104140
X10160Y106680
X10160Y109220
X10160Y111760
X10160Y114300
X10160Y116840
X10160Y90170
X10160Y87630
X10160Y76200
X10160Y78740
X10160Y81280
X10160Y64770
X10160Y67310
X10160Y69850
X12700Y40640
X10160Y40640
X12700Y43180
X10160Y43180
X12700Y45720
X10160Y45720
X12700Y48260
X10160Y48260
X12700Y50800
T2
X50800Y35560
X50800Y20320
X50800Y17780
X50800Y30480
X50800Y27940
X50800Y22860
X50800Y25400
X58420Y17780
X58420Y20320
X58420Y22860
X58420Y25400
X58420Y27940
X58420Y30480
X58420Y33020
X58420Y35560
X50800Y62230
X50800Y59690
X50800Y46990
X50800Y44450
X50800Y57150
X50800Y54610
X50800Y49530
X50800Y52070
X58420Y44450
X58420Y46990
X58420Y49530
X58420Y52070
X58420Y54610
X58420Y57150
X58420Y59690
X58420Y62230
X26670Y62230
X26670Y59690
X26670Y46990
X26670Y44450
X26670Y57150
X26670Y54610
X26670Y49530
X26670Y52070
X99060Y116840
X34290Y46990
X34290Y49530
X34290Y52070
X34290Y54610
X34290Y57150
X34290Y59690
X34290Y62230
X34290Y44450
X59690Y118110
X59690Y115570
X59690Y102870
X59690Y100330
X59690Y113030
X59690Y110490
X59690Y105410
X59690Y107950
X67310Y100330
X67310Y102870
X67310Y105410
X67310Y107950
X67310Y110490
X67310Y113030
X67310Y115570
X67310Y118110
X59690Y91440
X59690Y88900
X59690Y76200
X59690Y73660
X59690Y86360
X59690Y83820
X59690Y78740
X59690Y81280
X67310Y73660
X67310Y76200
X67310Y78740
X67310Y81280
X67310Y83820
X67310Y86360
X67310Y88900
X67310Y91440
X43180Y91440
X43180Y88900
X43180Y76200
X50800Y76200
X43180Y86360
X43180Y83820
X43180Y78740
X43180Y81280
X50800Y78740
X50800Y81280
X50800Y83820
X50800Y86360
X50800Y88900
X50800Y91440
X26670Y91440
X26670Y88900
X26670Y76200
X26670Y73660
X26670Y86360
X26670Y83820
X26670Y78740
X26670Y81280
X34290Y73660
X34290Y76200
X34290Y78740
X34290Y81280
X34290Y83820
X34290Y86360
X34290Y88900
X34290Y91440
X26670Y118110
X26670Y115570
X26670Y102870
X26670Y100330
X26670Y113030
X26670Y110490
X26670Y105410
X26670Y107950
X34290Y100330
X34290Y102870
X34290Y105410
X34290Y107950
X34290Y110490
X34290Y113030
X34290Y115570
X34290Y118110
X99060Y119380
X50800Y33020
X99060Y62230
X99060Y59690
X99060Y55880
X99060Y53340
X99060Y49530
X99060Y46990
X99060Y43180
X99060Y40640
X99060Y36830
X99060Y34290
X99060Y30480
X99060Y27940
X99060Y24130
X99060Y21590
X99060Y113030
X99060Y110490
X99060Y106680
X99060Y104140
X99060Y100330
X99060Y97790
X99060Y93980
X99060Y91440
X99060Y87630
X99060Y85090
X99060Y81280
X99060Y78740
X99060Y74930
X99060Y72390
X99060Y68580
X99060Y66040
X86360Y116840
X93980Y116840
X86360Y59690
X93980Y59690
X86360Y53340
X93980Y53340
X86360Y46990
X93980Y46990
X86360Y40640
X93980Y40640
X86360Y34290
X93980Y34290
X86360Y27940
X93980Y27940
X86360Y21590
X93980Y21590
X86360Y110490
X93980Y110490
X86360Y104140
X93980Y104140
X86360Y97790
X93980Y97790
X86360Y91440
X93980Y91440
X86360Y85090
X93980Y85090
X86360Y78740
X93980Y78740
X86360Y72390
X93980Y72390
X86360Y66040
X93980Y66040
X26670Y35560
X26670Y33020
X26670Y20320
X26670Y17780
X26670Y30480
X26670Y27940
X26670Y22860
X26670Y25400
X34290Y17780
X34290Y20320
X34290Y22860
X34290Y25400
X34290Y27940
X34290Y30480
X34290Y33020
X34290Y35560
T3
X32918Y39929
X37490Y106985
X29870Y93878
X38100Y85039
X38100Y78334
X54864Y45415
X37490Y40843
X33528Y40843
X27737Y40843
X54864Y44196
X52426Y41758
X32918Y41758
X30480Y29261
X30480Y24689
X8534Y38405
X23165Y28346
X66446Y30175
X61265Y14326
X9449Y36576
X23165Y23165
X66446Y24079
X61265Y15545
X11278Y34747
X14021Y32004
X63398Y75590
X80772Y56998
X60046Y38100
X62789Y77419
X56388Y16764
X64008Y76505
X83820Y41453
X58217Y72542
X80162Y50597
X17983Y64008
X29870Y22555
X47549Y22555
X81382Y39014
X24384Y20726
X21946Y20726
X97841Y64922
X70714Y29261
X65227Y111252
X80772Y84430
X89002Y63398
X13106Y36271
X13106Y32918
X60655Y66142
X64618Y39014
X65532Y39624
X29566Y45720
X62484Y34442
X43282Y17069
X14630Y119177
X8534Y97536
X15850Y57607
X37490Y108204
X71018Y115824
X20117Y104546
X17069Y101498
X11887Y61874
X21336Y54559
X101803Y90526
X38100Y106070
X48158Y116129
X22860Y96926
X10058Y62789
X22555Y52426
X29870Y81382
X29870Y86868
X53950Y63398
X58217Y67361
X61874Y67361
X22250Y80162
X48768Y66142
X49987Y67361
X58826Y68275
X63703Y68275
X48158Y63094
X58217Y66142
X62789Y103327
M30