G04 EAGLE Gerber RS-274X export*
G75*
%MOMM*%
%FSLAX34Y34*%
%LPD*%
%INSoldermask Top*%
%IPPOS*%
%AMOC8*
5,1,8,0,0,1.08239X$1,22.5*%
G01*
%ADD10C,1.524000*%
%ADD11P,1.649562X8X292.500000*%
%ADD12P,1.649562X8X22.500000*%
%ADD13C,1.727200*%
%ADD14P,1.869504X8X292.500000*%
%ADD15C,0.959600*%


D10*
X590296Y1181100D02*
X603504Y1181100D01*
X603504Y1155700D02*
X590296Y1155700D01*
X590296Y1028700D02*
X603504Y1028700D01*
X603504Y1003300D02*
X590296Y1003300D01*
X590296Y1130300D02*
X603504Y1130300D01*
X603504Y1104900D02*
X590296Y1104900D01*
X590296Y1054100D02*
X603504Y1054100D01*
X603504Y1079500D02*
X590296Y1079500D01*
X666496Y1003300D02*
X679704Y1003300D01*
X679704Y1028700D02*
X666496Y1028700D01*
X666496Y1054100D02*
X679704Y1054100D01*
X679704Y1079500D02*
X666496Y1079500D01*
X666496Y1104900D02*
X679704Y1104900D01*
X679704Y1130300D02*
X666496Y1130300D01*
X666496Y1155700D02*
X679704Y1155700D01*
X679704Y1181100D02*
X666496Y1181100D01*
X603504Y914400D02*
X590296Y914400D01*
X590296Y889000D02*
X603504Y889000D01*
X603504Y762000D02*
X590296Y762000D01*
X590296Y736600D02*
X603504Y736600D01*
X603504Y863600D02*
X590296Y863600D01*
X590296Y838200D02*
X603504Y838200D01*
X603504Y787400D02*
X590296Y787400D01*
X590296Y812800D02*
X603504Y812800D01*
X666496Y736600D02*
X679704Y736600D01*
X679704Y762000D02*
X666496Y762000D01*
X666496Y787400D02*
X679704Y787400D01*
X679704Y812800D02*
X666496Y812800D01*
X666496Y838200D02*
X679704Y838200D01*
X679704Y863600D02*
X666496Y863600D01*
X666496Y889000D02*
X679704Y889000D01*
X679704Y914400D02*
X666496Y914400D01*
X438404Y914400D02*
X425196Y914400D01*
X425196Y889000D02*
X438404Y889000D01*
X438404Y762000D02*
X425196Y762000D01*
X501396Y762000D02*
X514604Y762000D01*
X438404Y863600D02*
X425196Y863600D01*
X425196Y838200D02*
X438404Y838200D01*
X438404Y787400D02*
X425196Y787400D01*
X425196Y812800D02*
X438404Y812800D01*
X501396Y787400D02*
X514604Y787400D01*
X514604Y812800D02*
X501396Y812800D01*
X501396Y838200D02*
X514604Y838200D01*
X514604Y863600D02*
X501396Y863600D01*
X501396Y889000D02*
X514604Y889000D01*
X514604Y914400D02*
X501396Y914400D01*
X273304Y914400D02*
X260096Y914400D01*
X260096Y889000D02*
X273304Y889000D01*
X273304Y762000D02*
X260096Y762000D01*
X260096Y736600D02*
X273304Y736600D01*
X273304Y863600D02*
X260096Y863600D01*
X260096Y838200D02*
X273304Y838200D01*
X273304Y787400D02*
X260096Y787400D01*
X260096Y812800D02*
X273304Y812800D01*
X336296Y736600D02*
X349504Y736600D01*
X349504Y762000D02*
X336296Y762000D01*
X336296Y787400D02*
X349504Y787400D01*
X349504Y812800D02*
X336296Y812800D01*
X336296Y838200D02*
X349504Y838200D01*
X349504Y863600D02*
X336296Y863600D01*
X336296Y889000D02*
X349504Y889000D01*
X349504Y914400D02*
X336296Y914400D01*
X273304Y1181100D02*
X260096Y1181100D01*
X260096Y1155700D02*
X273304Y1155700D01*
X273304Y1028700D02*
X260096Y1028700D01*
X260096Y1003300D02*
X273304Y1003300D01*
X273304Y1130300D02*
X260096Y1130300D01*
X260096Y1104900D02*
X273304Y1104900D01*
X273304Y1054100D02*
X260096Y1054100D01*
X260096Y1079500D02*
X273304Y1079500D01*
X336296Y1003300D02*
X349504Y1003300D01*
X349504Y1028700D02*
X336296Y1028700D01*
X336296Y1054100D02*
X349504Y1054100D01*
X349504Y1079500D02*
X336296Y1079500D01*
X336296Y1104900D02*
X349504Y1104900D01*
X349504Y1130300D02*
X336296Y1130300D01*
X336296Y1155700D02*
X349504Y1155700D01*
X349504Y1181100D02*
X336296Y1181100D01*
D11*
X990600Y1193800D03*
X990600Y1168400D03*
X990600Y622300D03*
X990600Y596900D03*
X990600Y558800D03*
X990600Y533400D03*
X990600Y495300D03*
X990600Y469900D03*
X990600Y431800D03*
X990600Y406400D03*
X990600Y368300D03*
X990600Y342900D03*
X990600Y304800D03*
X990600Y279400D03*
X990600Y241300D03*
X990600Y215900D03*
X990600Y1130300D03*
X990600Y1104900D03*
X990600Y1066800D03*
X990600Y1041400D03*
X990600Y1003300D03*
X990600Y977900D03*
X990600Y939800D03*
X990600Y914400D03*
X990600Y876300D03*
X990600Y850900D03*
X990600Y812800D03*
X990600Y787400D03*
X990600Y749300D03*
X990600Y723900D03*
X990600Y685800D03*
X990600Y660400D03*
D12*
X863600Y1168400D03*
X939800Y1168400D03*
X863600Y596900D03*
X939800Y596900D03*
X863600Y533400D03*
X939800Y533400D03*
X863600Y469900D03*
X939800Y469900D03*
X863600Y406400D03*
X939800Y406400D03*
X863600Y342900D03*
X939800Y342900D03*
X863600Y279400D03*
X939800Y279400D03*
X863600Y215900D03*
X939800Y215900D03*
X863600Y1104900D03*
X939800Y1104900D03*
X863600Y1041400D03*
X939800Y1041400D03*
X863600Y977900D03*
X939800Y977900D03*
X863600Y914400D03*
X939800Y914400D03*
X863600Y850900D03*
X939800Y850900D03*
X863600Y787400D03*
X939800Y787400D03*
X863600Y723900D03*
X939800Y723900D03*
X863600Y660400D03*
X939800Y660400D03*
D10*
X273304Y355600D02*
X260096Y355600D01*
X260096Y330200D02*
X273304Y330200D01*
X273304Y203200D02*
X260096Y203200D01*
X260096Y177800D02*
X273304Y177800D01*
X273304Y304800D02*
X260096Y304800D01*
X260096Y279400D02*
X273304Y279400D01*
X273304Y228600D02*
X260096Y228600D01*
X260096Y254000D02*
X273304Y254000D01*
X336296Y177800D02*
X349504Y177800D01*
X349504Y203200D02*
X336296Y203200D01*
X336296Y228600D02*
X349504Y228600D01*
X349504Y254000D02*
X336296Y254000D01*
X336296Y279400D02*
X349504Y279400D01*
X349504Y304800D02*
X336296Y304800D01*
X336296Y330200D02*
X349504Y330200D01*
X349504Y355600D02*
X336296Y355600D01*
X501396Y355600D02*
X514604Y355600D01*
X514604Y330200D02*
X501396Y330200D01*
X501396Y203200D02*
X514604Y203200D01*
X514604Y177800D02*
X501396Y177800D01*
X501396Y304800D02*
X514604Y304800D01*
X514604Y279400D02*
X501396Y279400D01*
X501396Y228600D02*
X514604Y228600D01*
X514604Y254000D02*
X501396Y254000D01*
X577596Y177800D02*
X590804Y177800D01*
X590804Y203200D02*
X577596Y203200D01*
X577596Y228600D02*
X590804Y228600D01*
X590804Y254000D02*
X577596Y254000D01*
X577596Y279400D02*
X590804Y279400D01*
X590804Y304800D02*
X577596Y304800D01*
X577596Y330200D02*
X590804Y330200D01*
X590804Y355600D02*
X577596Y355600D01*
X514604Y622300D02*
X501396Y622300D01*
X501396Y596900D02*
X514604Y596900D01*
X514604Y469900D02*
X501396Y469900D01*
X501396Y444500D02*
X514604Y444500D01*
X514604Y571500D02*
X501396Y571500D01*
X501396Y546100D02*
X514604Y546100D01*
X514604Y495300D02*
X501396Y495300D01*
X501396Y520700D02*
X514604Y520700D01*
X577596Y444500D02*
X590804Y444500D01*
X590804Y469900D02*
X577596Y469900D01*
X577596Y495300D02*
X590804Y495300D01*
X590804Y520700D02*
X577596Y520700D01*
X577596Y546100D02*
X590804Y546100D01*
X590804Y571500D02*
X577596Y571500D01*
X577596Y596900D02*
X590804Y596900D01*
X590804Y622300D02*
X577596Y622300D01*
X273304Y622300D02*
X260096Y622300D01*
X260096Y596900D02*
X273304Y596900D01*
X273304Y469900D02*
X260096Y469900D01*
X260096Y444500D02*
X273304Y444500D01*
X273304Y571500D02*
X260096Y571500D01*
X260096Y546100D02*
X273304Y546100D01*
X273304Y495300D02*
X260096Y495300D01*
X260096Y520700D02*
X273304Y520700D01*
X336296Y444500D02*
X349504Y444500D01*
X349504Y469900D02*
X336296Y469900D01*
X336296Y495300D02*
X349504Y495300D01*
X349504Y520700D02*
X336296Y520700D01*
X336296Y546100D02*
X349504Y546100D01*
X349504Y571500D02*
X336296Y571500D01*
X336296Y596900D02*
X349504Y596900D01*
X349504Y622300D02*
X336296Y622300D01*
D13*
X109220Y1168400D02*
X93980Y1168400D01*
X93980Y1143000D02*
X109220Y1143000D01*
X109220Y1117600D02*
X93980Y1117600D01*
X93980Y1092200D02*
X109220Y1092200D01*
X109220Y1066800D02*
X93980Y1066800D01*
X93980Y1041400D02*
X109220Y1041400D01*
X109220Y1016000D02*
X93980Y1016000D01*
X93980Y990600D02*
X109220Y990600D01*
D14*
X101600Y584200D03*
X127000Y584200D03*
X101600Y558800D03*
X127000Y558800D03*
X101600Y533400D03*
X127000Y533400D03*
X101600Y508000D03*
X127000Y508000D03*
X101600Y482600D03*
X127000Y482600D03*
X101600Y457200D03*
X127000Y457200D03*
X101600Y431800D03*
X127000Y431800D03*
X101600Y406400D03*
X127000Y406400D03*
D13*
X109220Y698500D02*
X93980Y698500D01*
X93980Y673100D02*
X109220Y673100D01*
X109220Y647700D02*
X93980Y647700D01*
X93980Y812800D02*
X109220Y812800D01*
X109220Y787400D02*
X93980Y787400D01*
X93980Y762000D02*
X109220Y762000D01*
X109220Y876300D02*
X93980Y876300D01*
X93980Y901700D02*
X109220Y901700D01*
D15*
X329184Y399288D03*
X374904Y1069848D03*
X298704Y938784D03*
X381000Y850392D03*
X381000Y783336D03*
X548640Y454152D03*
X374904Y408432D03*
X335280Y408432D03*
X277368Y408432D03*
X548640Y441960D03*
X524256Y417576D03*
X329184Y417576D03*
X304800Y292608D03*
X304800Y246888D03*
X85344Y384048D03*
X231648Y283464D03*
X664464Y301752D03*
X612648Y143256D03*
X94488Y365760D03*
X231648Y231648D03*
X664464Y240792D03*
X612648Y155448D03*
X112776Y347472D03*
X140208Y320040D03*
X633984Y755904D03*
X807720Y569976D03*
X600456Y381000D03*
X627888Y774192D03*
X563880Y167640D03*
X640080Y765048D03*
X838200Y414528D03*
X582168Y725424D03*
X801624Y505968D03*
X179832Y640080D03*
X298704Y225552D03*
X475488Y225552D03*
X813816Y390144D03*
X243840Y207264D03*
X219456Y207264D03*
X627888Y1033272D03*
X978408Y649224D03*
X707136Y292608D03*
X652272Y1112520D03*
X807720Y844296D03*
X890016Y633984D03*
X131064Y362712D03*
X131064Y329184D03*
X606552Y661416D03*
X582168Y661416D03*
X481584Y630936D03*
X637032Y682752D03*
X588264Y682752D03*
X499872Y673608D03*
X487680Y661416D03*
X222504Y801624D03*
X618744Y673608D03*
X582168Y673608D03*
X539496Y633984D03*
X298704Y868680D03*
X298704Y813816D03*
X225552Y524256D03*
X100584Y627888D03*
X228600Y969264D03*
X481584Y1161288D03*
X381000Y1060704D03*
X1018032Y905256D03*
X213360Y545592D03*
X118872Y618744D03*
X170688Y1014984D03*
X201168Y1045464D03*
X710184Y1158240D03*
X374904Y1082040D03*
X158496Y576072D03*
X85344Y975360D03*
X146304Y1191768D03*
X432816Y170688D03*
X624840Y344424D03*
X295656Y457200D03*
X655320Y396240D03*
X646176Y390144D03*
M02*
