M48
;GenerationSoftware,Autodesk,EAGLE,9.3.2*%
;CreationDate,2019-07-10T13:01:41Z*%
FMAT,2
ICI,OFF
METRIC,TZ,000.000
T8C0.350
T7C0.813
T6C0.900
T5C1.016
T4C1.100
T3C1.194
T2C1.200
T1C2.007
%
G90
M71
T1
X53137Y144780
X57150Y144780
X61163Y144780
T2
X30400Y147320
X25400Y147320
X20400Y147320
T3
X10160Y126960
X10160Y121960
T4
X46990Y154940
X39370Y139700
T5
X109220Y129540
X81280Y107950
X81280Y105410
X114300Y116840
X111760Y129540
X114300Y129540
X116840Y129540
X119380Y129540
X121920Y129540
X124460Y129540
X127000Y129540
X109220Y104140
X111760Y104140
X114300Y104140
X116840Y104140
X119380Y104140
X121920Y104140
X124460Y104140
X127000Y104140
X127000Y57150
X124460Y57150
X121920Y57150
X119380Y57150
X116840Y57150
X114300Y57150
X127000Y54610
X124460Y54610
X121920Y54610
X119380Y54610
X116840Y54610
X114300Y54610
X111760Y57150
X109220Y57150
X111760Y54610
X109220Y54610
X127000Y46990
X124460Y46990
X121920Y46990
X119380Y46990
X116840Y46990
X114300Y46990
X127000Y44450
X124460Y44450
X121920Y44450
X119380Y44450
X116840Y44450
X114300Y44450
X111760Y46990
X109220Y46990
X111760Y44450
X109220Y44450
X127000Y36830
X124460Y36830
X121920Y36830
X119380Y36830
X116840Y36830
X114300Y36830
X127000Y34290
X124460Y34290
X121920Y34290
X119380Y34290
X116840Y34290
X114300Y34290
X111760Y36830
X109220Y36830
X111760Y34290
X109220Y34290
X127000Y26670
X124460Y26670
X121920Y26670
X119380Y26670
X116840Y26670
X114300Y26670
X127000Y24130
X124460Y24130
X121920Y24130
X119380Y24130
X116840Y24130
X114300Y24130
X111760Y26670
X109220Y26670
X111760Y24130
X109220Y24130
X109220Y110490
X111760Y110490
X114300Y110490
X116840Y110490
X119380Y110490
X121920Y110490
X124460Y110490
X127000Y110490
X109220Y116840
X111760Y116840
X116840Y116840
X119380Y116840
X121920Y116840
X124460Y116840
X127000Y116840
X109220Y123190
X111760Y123190
X114300Y123190
X116840Y123190
X119380Y123190
X121920Y123190
X124460Y123190
X127000Y123190
X109220Y72390
X111760Y72390
X114300Y72390
X116840Y72390
X119380Y72390
X121920Y72390
X124460Y72390
X127000Y72390
X109220Y78740
X111760Y78740
X114300Y78740
X116840Y78740
X119380Y78740
X121920Y78740
X124460Y78740
X127000Y78740
X109220Y85090
X111760Y85090
X114300Y85090
X116840Y85090
X119380Y85090
X121920Y85090
X124460Y85090
X127000Y85090
X109220Y91440
X111760Y91440
X114300Y91440
X116840Y91440
X119380Y91440
X121920Y91440
X124460Y91440
X127000Y91440
X109220Y97790
X111760Y97790
X114300Y97790
X116840Y97790
X119380Y97790
X121920Y97790
X124460Y97790
X127000Y97790
T6
X39370Y142240
X39370Y147320
X46990Y142240
X46990Y147320
T7
X88900Y137160
X106680Y137160
X99060Y137160
X116840Y137160
X109220Y137160
X78740Y142240
X81280Y142240
X88900Y142240
X91440Y142240
X99060Y142240
X101600Y142240
X109220Y142240
X111760Y142240
X119380Y142240
X121920Y142240
X129540Y142240
X132080Y142240
X139700Y142240
X142240Y142240
X149860Y142240
X152400Y142240
X83820Y147320
X91440Y147320
X93980Y147320
X101600Y147320
X104140Y147320
X111760Y147320
X114300Y147320
X121920Y147320
X124460Y147320
X132080Y147320
X134620Y147320
X142240Y147320
X144780Y147320
X152400Y147320
X73660Y147320
X81280Y147320
X17780Y123190
X17780Y125730
X39370Y120650
X39370Y118110
X36830Y118110
X36830Y115570
X35560Y92710
X35560Y90170
X38100Y95250
X38100Y92710
X73660Y118110
X73660Y115570
X45720Y125730
X45720Y123190
X45720Y110490
X53340Y110490
X45720Y120650
X45720Y118110
X45720Y113030
X45720Y115570
X53340Y113030
X53340Y115570
X53340Y118110
X53340Y120650
X53340Y123190
X53340Y125730
X45720Y100330
X45720Y97790
X45720Y85090
X45720Y82550
X45720Y95250
X83820Y33020
X45720Y87630
X45720Y90170
X45720Y80010
X45720Y77470
X53340Y77470
X53340Y80010
X53340Y82550
X53340Y85090
X53340Y87630
X53340Y90170
X53340Y92710
X53340Y95250
X53340Y97790
X53340Y100330
X25400Y100330
X25400Y97790
X33020Y97790
X33020Y100330
X25400Y95250
X25400Y92710
X33020Y95250
X33020Y92710
X63500Y125730
X63500Y123190
X71120Y123190
X71120Y125730
X63500Y120650
X63500Y118110
X71120Y120650
X71120Y118110
X26670Y125730
X26670Y123190
X34290Y123190
X34290Y125730
X26670Y120650
X26670Y118110
X34290Y120650
X34290Y118110
X64770Y100330
X64770Y97790
X64770Y85090
X64770Y82550
X64770Y95250
X64770Y92710
X64770Y87630
X64770Y90170
X72390Y82550
X72390Y85090
X72390Y87630
X72390Y90170
X72390Y92710
X72390Y95250
X72390Y97790
X72390Y100330
X12700Y109220
X10160Y109220
X35560Y139700
X35560Y132080
X15240Y104140
X7620Y104140
X25400Y139700
X33020Y139700
X22860Y97790
X22860Y90170
X35560Y95250
X35560Y102870
X60960Y123190
X60960Y115570
X63500Y115570
X63500Y107950
X58420Y48260
X52070Y25400
X52070Y17780
X43180Y41910
X35560Y41910
X31750Y27940
X31750Y35560
X31750Y17780
X31750Y25400
X22860Y16510
X15240Y16510
X22860Y41910
X15240Y41910
X11430Y27940
X11430Y35560
X11430Y17780
X11430Y25400
X52070Y27940
X52070Y35560
X63500Y41910
X55880Y41910
X72390Y17780
X72390Y25400
X63500Y16510
X55880Y16510
X72390Y27940
X72390Y35560
X83820Y41910
X76200Y41910
X83820Y16510
X76200Y16510
X43180Y16510
X35560Y16510
X72390Y48260
X74930Y48260
X77470Y48260
X80010Y48260
X82550Y48260
X82550Y63500
X80010Y63500
X77470Y63500
X74930Y63500
X72390Y63500
X53340Y48260
X55880Y48260
X60960Y48260
X63500Y48260
X63500Y63500
X60960Y63500
X58420Y63500
X55880Y63500
X53340Y63500
X34290Y48260
X36830Y48260
X39370Y48260
X41910Y48260
X44450Y48260
X44450Y63500
X41910Y63500
X39370Y63500
X36830Y63500
X34290Y63500
X15240Y48260
X17780Y48260
X20320Y48260
X22860Y48260
X25400Y48260
X25400Y63500
X22860Y63500
X20320Y63500
X17780Y63500
X15240Y63500
X15240Y38100
X15240Y35560
X15240Y22860
X15240Y20320
X15240Y33020
X15240Y30480
X15240Y25400
X15240Y27940
X22860Y20320
X22860Y22860
X22860Y25400
X22860Y27940
X22860Y30480
X22860Y33020
X22860Y35560
X22860Y38100
X76200Y38100
X45720Y92710
X76200Y35560
X76200Y22860
X76200Y20320
X76200Y33020
X76200Y30480
X76200Y25400
X76200Y27940
X83820Y20320
X83820Y22860
X83820Y25400
X83820Y27940
X83820Y30480
X83820Y35560
X83820Y38100
X55880Y38100
X55880Y35560
X55880Y22860
X55880Y20320
X55880Y33020
X55880Y30480
X55880Y25400
X55880Y27940
X63500Y20320
X63500Y22860
X63500Y25400
X63500Y27940
X63500Y30480
X63500Y33020
X63500Y35560
X63500Y38100
X35560Y38100
X35560Y35560
X35560Y22860
X35560Y20320
X35560Y33020
X35560Y30480
X35560Y25400
X35560Y27940
X43180Y20320
X43180Y22860
X43180Y25400
X43180Y27940
X43180Y30480
X43180Y33020
X43180Y35560
X43180Y38100
X86360Y137160
X78740Y137160
X149860Y137160
X157480Y137160
X139700Y137160
X147320Y137160
X129540Y137160
X137160Y137160
X119380Y137160
X127000Y137160
X96520Y137160
T8
X67628Y56197
X66675Y33338
X61912Y111760
X50482Y113347
X42863Y104775
X16192Y45085
X105092Y14922
X32702Y49530
X39370Y36830
X58420Y33338
X66675Y38735
M30