M48
;GenerationSoftware,Autodesk,EAGLE,9.3.2*%
;CreationDate,2019-07-10T13:19:23Z*%
FMAT,2
ICI,OFF
METRIC,TZ,000.000
T4C0.350
T3C0.813
T2C1.016
T1C2.007
%
G90
M71
T1
X10160Y165303
X10160Y161290
X10160Y157277
T2
X11430Y69850
X11430Y67310
X11430Y64770
X11430Y62230
X12700Y143510
X12700Y140970
X12700Y135890
X12700Y133350
X12700Y119380
X12700Y121920
X12700Y124460
X12700Y127000
X146050Y38100
X146050Y35560
X148590Y38100
X148590Y35560
X146050Y33020
X146050Y30480
X146050Y27940
X146050Y25400
X146050Y22860
X146050Y20320
X148590Y33020
X148590Y30480
X148590Y27940
X148590Y25400
X148590Y22860
X148590Y20320
X148590Y73660
X148590Y76200
X148590Y78740
X148590Y81280
X148590Y83820
X148590Y86360
X148590Y88900
X148590Y91440
X8890Y62230
X11430Y74930
X11430Y72390
X8890Y80010
X8890Y77470
X11430Y80010
X11430Y77470
X8890Y74930
X8890Y72390
X8890Y69850
X8890Y67310
X8890Y64770
T3
X78740Y152400
X30480Y87630
X30480Y85090
X30480Y97790
X30480Y95250
X30480Y90170
X30480Y92710
X38100Y85090
X38100Y87630
X38100Y90170
X38100Y92710
X38100Y95250
X38100Y97790
X38100Y100330
X38100Y102870
X80010Y140970
X80010Y138430
X80010Y125730
X80010Y123190
X80010Y135890
X80010Y133350
X80010Y128270
X80010Y130810
X87630Y123190
X87630Y125730
X87630Y128270
X87630Y130810
X87630Y133350
X87630Y135890
X87630Y138430
X87630Y140970
X62230Y140970
X62230Y138430
X62230Y125730
X62230Y123190
X62230Y135890
X62230Y133350
X62230Y128270
X62230Y130810
X69850Y123190
X69850Y125730
X69850Y128270
X69850Y130810
X69850Y133350
X69850Y135890
X69850Y138430
X69850Y140970
X147320Y165100
X149860Y165100
X109220Y165100
X111760Y165100
X140970Y165100
X143510Y165100
X134620Y165100
X137160Y165100
X128270Y165100
X130810Y165100
X121920Y165100
X124460Y165100
X115570Y165100
X118110Y165100
X102870Y165100
X105410Y165100
X149860Y152400
X149860Y160020
X111760Y152400
X111760Y160020
X143510Y152400
X143510Y160020
X137160Y152400
X137160Y160020
X130810Y160020
X68580Y64770
X124460Y152400
X124460Y160020
X118110Y152400
X118110Y160020
X105410Y152400
X105410Y160020
X60960Y90170
X60960Y87630
X60960Y74930
X68580Y74930
X60960Y85090
X60960Y82550
X60960Y77470
X60960Y80010
X68580Y77470
X68580Y80010
X68580Y82550
X68580Y85090
X68580Y87630
X68580Y90170
X130810Y152400
X81280Y152400
X83820Y152400
X86360Y152400
X88900Y152400
X88900Y167640
X86360Y167640
X83820Y167640
X81280Y167640
X78740Y167640
X60960Y152400
X63500Y152400
X66040Y152400
X68580Y152400
X71120Y152400
X71120Y167640
X68580Y167640
X66040Y167640
X63500Y167640
X60960Y167640
X43180Y152400
X45720Y152400
X48260Y152400
X50800Y152400
X53340Y152400
X53340Y167640
X50800Y167640
X48260Y167640
X45720Y167640
X43180Y167640
X25400Y152400
X27940Y152400
X30480Y152400
X33020Y152400
X35560Y152400
X35560Y167640
X33020Y167640
X30480Y167640
X27940Y167640
X25400Y167640
X124460Y143510
X124460Y140970
X124460Y138430
X124460Y135890
X124460Y133350
X124460Y130810
X124460Y128270
X124460Y125730
X124460Y123190
X124460Y120650
X124460Y118110
X124460Y115570
X124460Y113030
X124460Y110490
X139700Y110490
X139700Y113030
X139700Y115570
X139700Y118110
X139700Y120650
X139700Y123190
X139700Y125730
X139700Y128270
X139700Y130810
X139700Y133350
X139700Y135890
X139700Y138430
X139700Y140970
X139700Y143510
X44450Y140970
X44450Y138430
X44450Y125730
X44450Y123190
X44450Y135890
X44450Y133350
X44450Y128270
X44450Y130810
X52070Y123190
X52070Y125730
X52070Y128270
X52070Y130810
X52070Y133350
X52070Y135890
X52070Y138430
X52070Y140970
X26670Y140970
X26670Y138430
X26670Y125730
X26670Y123190
X26670Y135890
X26670Y133350
X26670Y128270
X26670Y130810
X34290Y123190
X34290Y125730
X34290Y128270
X34290Y130810
X34290Y133350
X34290Y135890
X34290Y138430
X34290Y140970
X86360Y102870
X86360Y100330
X86360Y87630
X86360Y85090
X86360Y97790
X86360Y95250
X86360Y90170
X86360Y92710
X93980Y85090
X93980Y87630
X93980Y90170
X93980Y92710
X93980Y95250
X93980Y97790
X93980Y100330
X93980Y102870
X86360Y77470
X86360Y74930
X86360Y62230
X86360Y59690
X86360Y72390
X86360Y69850
X86360Y64770
X86360Y67310
X93980Y59690
X93980Y62230
X93980Y64770
X93980Y67310
X93980Y69850
X93980Y72390
X93980Y74930
X93980Y77470
X60960Y64770
X60960Y62230
X60960Y49530
X68580Y49530
X60960Y59690
X60960Y57150
X60960Y52070
X60960Y54610
X68580Y52070
X68580Y54610
X68580Y57150
X68580Y59690
X68580Y62230
X30480Y102870
X105410Y50800
X105410Y48260
X105410Y35560
X105410Y33020
X105410Y45720
X105410Y43180
X105410Y38100
X105410Y40640
X113030Y33020
X113030Y35560
X113030Y38100
X113030Y40640
X113030Y43180
X113030Y45720
X113030Y48260
X113030Y50800
X105410Y24130
X105410Y21590
X105410Y8890
X105410Y6350
X105410Y19050
X105410Y16510
X105410Y11430
X105410Y13970
X113030Y6350
X113030Y8890
X113030Y11430
X113030Y13970
X113030Y16510
X113030Y19050
X113030Y21590
X113030Y24130
X86360Y50800
X86360Y48260
X86360Y35560
X86360Y33020
X86360Y45720
X86360Y43180
X86360Y38100
X86360Y40640
X93980Y33020
X93980Y35560
X93980Y38100
X93980Y40640
X93980Y43180
X93980Y45720
X93980Y48260
X93980Y50800
X86360Y24130
X86360Y21590
X86360Y8890
X86360Y6350
X86360Y19050
X86360Y16510
X86360Y11430
X86360Y13970
X93980Y6350
X93980Y8890
X93980Y11430
X93980Y13970
X93980Y16510
X93980Y19050
X93980Y21590
X93980Y24130
X105410Y102870
X105410Y100330
X105410Y87630
X105410Y85090
X105410Y97790
X105410Y95250
X105410Y90170
X105410Y92710
X113030Y85090
X113030Y87630
X113030Y90170
X113030Y92710
X113030Y95250
X113030Y97790
X113030Y100330
X113030Y102870
X105410Y77470
X105410Y74930
X105410Y62230
X105410Y59690
X105410Y72390
X105410Y69850
X105410Y64770
X105410Y67310
X113030Y59690
X113030Y62230
X113030Y64770
X113030Y67310
X113030Y69850
X113030Y72390
X113030Y74930
X113030Y77470
X30480Y34290
X30480Y31750
X30480Y19050
X30480Y16510
X30480Y29210
X30480Y26670
X30480Y21590
X30480Y24130
X38100Y16510
X38100Y19050
X38100Y21590
X38100Y24130
X38100Y26670
X38100Y29210
X38100Y31750
X38100Y34290
X30480Y57150
X30480Y54610
X30480Y41910
X30480Y39370
X30480Y52070
X30480Y49530
X30480Y44450
X30480Y46990
X38100Y39370
X38100Y41910
X38100Y44450
X38100Y46990
X38100Y49530
X38100Y52070
X38100Y54610
X38100Y57150
X30480Y80010
X30480Y77470
X30480Y64770
X30480Y62230
X30480Y74930
X30480Y72390
X30480Y67310
X30480Y69850
X38100Y62230
X38100Y64770
X38100Y67310
X38100Y69850
X38100Y72390
X38100Y74930
X38100Y77470
X38100Y80010
X30480Y100330
T4
X116307Y94348
X134645Y120409
X134163Y123546
X133680Y126441
X109791Y31369
X138265Y31369
X140437Y28232
X102070Y15202
X107620Y13995
X109791Y37643
X102311Y87109
X68047Y72390
X133198Y131991
X27508Y143574
X128372Y115583
X127165Y114376
X113894Y114135
X67323Y114135
X53086Y119443
X139954Y147917
X98933Y163601
X44158Y169393
X131750Y134645
X127648Y134645
X102311Y134645
X93866Y126682
X64668Y103035
X20993Y118478
X23889Y143574
X132715Y135611
X119685Y151778
X39573Y138506
X137058Y143091
X86868Y144539
X69012Y145021
X62014Y143574
X47536Y126200
X29680Y118478
X29680Y119685
X32334Y119685
X35954Y58877
X36436Y81077
X41262Y82525
X41262Y85420
X43193Y107137
X118478Y124511
X110515Y119443
X69012Y115100
X33541Y99174
X86868Y143574
X80353Y144056
X27749Y76251
X32575Y100139
X86868Y142608
X71666Y142850
X40297Y102552
X53086Y118237
X98209Y131750
X66358Y105448
X102794Y127165
X104483Y125476
X120167Y120409
X85179Y120650
X80112Y121615
X87833Y29921
X90246Y29921
X102311Y40297
X89522Y24613
X90246Y26543
X102311Y36195
X60566Y26302
X109791Y30404
X111722Y29921
X84214Y46088
X90246Y44640
X102311Y44640
X109309Y43675
X67564Y28232
X84455Y27749
X89764Y21958
X66840Y21234
X128372Y5791
X80353Y17132
X108344Y9169
X109309Y11100
X51638Y56464
X78905Y46088
X50432Y56464
X80836Y40056
X39332Y73597
X41262Y73597
X80836Y35712
X136576Y140195
X87833Y41986
X25336Y41745
X82766Y53327
X78664Y60566
X81801Y60566
X78905Y56464
X82283Y68529
X80836Y57912
X86627Y82525
X83731Y55499
X80353Y75527
X78905Y59601
X79870Y52845
X83249Y88316
X82283Y83972
X79870Y59360
X81801Y42469
X82283Y89281
X82283Y85179
X81801Y57429
X82283Y50914
X116789Y53327
X115583Y37884
X109550Y68529
X119202Y73114
X119202Y58877
X117754Y37884
X116548Y29439
X107620Y51397
X111963Y83490
X114376Y89040
X110033Y87833
X117272Y51397
X110757Y61049
X42228Y86144
X58395Y59118
X55499Y47536
X80353Y20269
X41262Y88316
X68771Y47053
X68529Y31610
X28232Y87833
X33541Y80353
X76733Y28715
X83731Y28715
X87833Y44399
X68529Y48019
X41504Y74562
X90246Y31369
X87833Y31369
X79870Y61773
M30