M48
;GenerationSoftware,Autodesk,EAGLE,9.3.2*%
;CreationDate,2019-07-10T16:46:10Z*%
FMAT,2
ICI,OFF
METRIC,TZ,000.000
T5C0.350
T4C0.813
T3C0.900
T2C1.016
T1C1.100
%
G90
M71
T1
X144780Y12700
X137160Y-2540
T2
X6350Y69850
X111760Y115570
X114300Y115570
X6350Y107950
X121920Y115570
X6350Y105410
X6350Y102870
X6350Y100330
X6350Y97790
X6350Y95250
X6350Y92710
X6350Y90170
X6350Y54610
X6350Y57150
X6350Y72390
X143510Y30480
X143510Y33020
X140970Y30480
X140970Y33020
X143510Y35560
X143510Y38100
X143510Y40640
X143510Y43180
X143510Y45720
X143510Y48260
X140970Y35560
X140970Y38100
X140970Y40640
X140970Y43180
X140970Y45720
X140970Y48260
X6350Y64770
X6350Y62230
X104140Y115570
X106680Y115570
X119380Y115570
T3
X137160Y10160
X144780Y10160
X144780Y5080
X137160Y5080
T4
X110490Y48260
X50800Y109220
X57150Y101600
X57150Y109220
X63500Y101600
X63500Y109220
X69850Y101600
X76200Y101600
X76200Y109220
X82550Y101600
X82550Y109220
X88900Y101600
X88900Y109220
X44450Y101600
X44450Y109220
X137160Y16510
X144780Y16510
X53340Y26670
X110490Y34290
X110490Y31750
X110490Y19050
X110490Y16510
X110490Y29210
X110490Y26670
X110490Y21590
X110490Y24130
X110490Y13970
X110490Y11430
X110490Y8890
X110490Y6350
X125730Y6350
X125730Y8890
X125730Y11430
X125730Y13970
X125730Y16510
X125730Y19050
X125730Y21590
X125730Y24130
X125730Y26670
X125730Y29210
X125730Y31750
X125730Y34290
X110490Y71120
X110490Y68580
X110490Y55880
X110490Y53340
X110490Y66040
X110490Y63500
X110490Y58420
X110490Y60960
X110490Y50800
X110490Y45720
X110490Y43180
X125730Y43180
X125730Y45720
X125730Y48260
X125730Y50800
X125730Y53340
X125730Y55880
X125730Y58420
X125730Y60960
X125730Y63500
X125730Y66040
X125730Y68580
X125730Y71120
X85090Y90170
X85090Y87630
X85090Y74930
X85090Y72390
X85090Y85090
X85090Y82550
X85090Y77470
X85090Y80010
X92710Y72390
X92710Y74930
X92710Y77470
X92710Y80010
X92710Y82550
X92710Y85090
X92710Y87630
X92710Y90170
X66040Y60960
X66040Y58420
X66040Y45720
X73660Y45720
X66040Y55880
X66040Y53340
X66040Y48260
X66040Y50800
X73660Y48260
X73660Y50800
X73660Y53340
X73660Y55880
X73660Y58420
X73660Y60960
X92710Y13970
X95250Y13970
X121920Y102870
X121920Y100330
X121920Y96520
X121920Y93980
X121920Y90170
X121920Y87630
X121920Y83820
X121920Y81280
X35560Y13970
X38100Y13970
X24130Y13970
X26670Y13970
X11430Y13970
X13970Y13970
X58420Y31750
X60960Y31750
X46990Y31750
X49530Y31750
X35560Y31750
X38100Y31750
X81280Y13970
X83820Y13970
X24130Y31750
X26670Y31750
X11430Y31750
X13970Y31750
X69850Y13970
X72390Y13970
X58420Y13970
X60960Y13970
X46990Y13970
X49530Y13970
X92710Y31750
X95250Y31750
X81280Y31750
X83820Y31750
X69850Y31750
X72390Y31750
X121920Y109220
X121920Y106680
X87630Y8890
X95250Y8890
X76200Y26670
X83820Y26670
X64770Y26670
X72390Y26670
X69850Y109220
X60960Y26670
X41910Y26670
X49530Y26670
X30480Y26670
X38100Y26670
X19050Y26670
X26670Y26670
X6350Y26670
X13970Y26670
X109220Y106680
X116840Y106680
X109220Y100330
X116840Y100330
X109220Y93980
X116840Y93980
X76200Y8890
X83820Y8890
X109220Y87630
X116840Y87630
X109220Y81280
X116840Y81280
X64770Y8890
X72390Y8890
X53340Y8890
X60960Y8890
X41910Y8890
X49530Y8890
X30480Y8890
X38100Y8890
X19050Y8890
X26670Y8890
X6350Y8890
X13970Y8890
X87630Y26670
X95250Y26670
X54610Y90170
X54610Y87630
X54610Y74930
X54610Y72390
X54610Y85090
X54610Y82550
X54610Y77470
X54610Y80010
X62230Y72390
X62230Y74930
X62230Y77470
X62230Y80010
X62230Y82550
X62230Y85090
X62230Y87630
X62230Y90170
X43180Y60960
X43180Y58420
X43180Y45720
X50800Y45720
X43180Y55880
X43180Y53340
X43180Y48260
X43180Y50800
X50800Y48260
X50800Y50800
X50800Y53340
X50800Y55880
X50800Y58420
X50800Y60960
X20320Y87630
X20320Y85090
X20320Y72390
X20320Y69850
X20320Y82550
X20320Y80010
X20320Y74930
X20320Y77470
X27940Y69850
X27940Y72390
X27940Y74930
X27940Y77470
X27940Y80010
X27940Y82550
X27940Y85090
X27940Y87630
X20320Y113030
X20320Y110490
X20320Y97790
X20320Y95250
X20320Y107950
X20320Y105410
X20320Y100330
X20320Y102870
X27940Y95250
X27940Y97790
X27940Y100330
X27940Y102870
X27940Y105410
X27940Y107950
X27940Y110490
X27940Y113030
X20320Y60960
X20320Y58420
X20320Y45720
X27940Y45720
X20320Y55880
X20320Y53340
X20320Y48260
X20320Y50800
X27940Y48260
X27940Y50800
X27940Y53340
X27940Y55880
X27940Y58420
X27940Y60960
X48260Y114300
X50800Y114300
X54610Y114300
X57150Y114300
X60960Y114300
X63500Y114300
X67310Y114300
X69850Y114300
X73660Y114300
X76200Y114300
X80010Y114300
X82550Y114300
X86360Y114300
X88900Y114300
X41910Y114300
X44450Y114300
X50800Y101600
T5
X28232Y63462
X22441Y85903
X19063Y81318
X89764Y66116
X37643Y76492
X129337Y13513
X122098Y12789
X34989Y63944
X37643Y44158
X146228Y32817
X128854Y58153
X127165Y39573
X128854Y68047
X124511Y52121
X127165Y40538
X24854Y70942
X121856Y67323
X131026Y57188
X107378Y70218
X122580Y47536
X124511Y49466
X130543Y46571
X130543Y40538
X130785Y62014
X148158Y48019
X132474Y30886
X138024Y19063
X128854Y27267
X129337Y14478
X127406Y14961
X18339Y70218
X17615Y96520
X52362Y63462
X102552Y57671
X47053Y43917
X48501Y41504
X22441Y110998
X69977Y85179
X48019Y43675
X49708Y41504
X101105Y82042
X44640Y39332
X96279Y27749
X29197Y91694
X34023Y74079
X34023Y81801
X34023Y92900
X48984Y43434
X50914Y41504
X65634Y115824
X29197Y92900
X52121Y41504
X35954Y77457
X29197Y76251
X89522Y82766
X99416Y40538
X128854Y44882
M30