G04 EAGLE Gerber RS-274X export*
G75*
%MOMM*%
%FSLAX34Y34*%
%LPD*%
%INSoldermask Bottom*%
%IPPOS*%
%AMOC8*
5,1,8,0,0,1.08239X$1,22.5*%
G01*
%ADD10P,1.649562X8X292.500000*%
%ADD11P,1.649562X8X202.500000*%
%ADD12P,1.649562X8X112.500000*%
%ADD13C,1.524000*%
%ADD14P,1.649562X8X22.500000*%
%ADD15C,1.524000*%
%ADD16C,2.387600*%
%ADD17R,1.703200X1.703200*%
%ADD18C,1.303200*%
%ADD19R,2.984500X2.984500*%
%ADD20C,2.984500*%
%ADD21C,1.727200*%
%ADD22P,1.869504X8X202.500000*%
%ADD23C,0.959600*%


D10*
X520700Y254000D03*
X520700Y177800D03*
D11*
X431800Y419100D03*
X355600Y419100D03*
D12*
X317500Y279400D03*
X317500Y355600D03*
X317500Y177800D03*
X317500Y254000D03*
D11*
X228600Y165100D03*
X152400Y165100D03*
X228600Y419100D03*
X152400Y419100D03*
D12*
X114300Y279400D03*
X114300Y355600D03*
X114300Y177800D03*
X114300Y254000D03*
X520700Y279400D03*
X520700Y355600D03*
D11*
X635000Y419100D03*
X558800Y419100D03*
D12*
X723900Y177800D03*
X723900Y254000D03*
D11*
X635000Y165100D03*
X558800Y165100D03*
D12*
X723900Y279400D03*
X723900Y355600D03*
D11*
X838200Y419100D03*
X762000Y419100D03*
X838200Y165100D03*
X762000Y165100D03*
X431800Y165100D03*
X355600Y165100D03*
D13*
X723900Y475996D02*
X723900Y489204D01*
X749300Y489204D02*
X749300Y475996D01*
X774700Y475996D02*
X774700Y489204D01*
X800100Y489204D02*
X800100Y475996D01*
X825500Y475996D02*
X825500Y489204D01*
X825500Y628396D02*
X825500Y641604D01*
X800100Y641604D02*
X800100Y628396D01*
X774700Y628396D02*
X774700Y641604D01*
X749300Y641604D02*
X749300Y628396D01*
X723900Y628396D02*
X723900Y641604D01*
X533400Y489204D02*
X533400Y475996D01*
X558800Y475996D02*
X558800Y489204D01*
X584200Y489204D02*
X584200Y475996D01*
X609600Y475996D02*
X609600Y489204D01*
X635000Y489204D02*
X635000Y475996D01*
X635000Y628396D02*
X635000Y641604D01*
X609600Y641604D02*
X609600Y628396D01*
X584200Y628396D02*
X584200Y641604D01*
X558800Y641604D02*
X558800Y628396D01*
X533400Y628396D02*
X533400Y641604D01*
X342900Y489204D02*
X342900Y475996D01*
X368300Y475996D02*
X368300Y489204D01*
X393700Y489204D02*
X393700Y475996D01*
X419100Y475996D02*
X419100Y489204D01*
X444500Y489204D02*
X444500Y475996D01*
X444500Y628396D02*
X444500Y641604D01*
X419100Y641604D02*
X419100Y628396D01*
X393700Y628396D02*
X393700Y641604D01*
X368300Y641604D02*
X368300Y628396D01*
X342900Y628396D02*
X342900Y641604D01*
X152400Y489204D02*
X152400Y475996D01*
X177800Y475996D02*
X177800Y489204D01*
X203200Y489204D02*
X203200Y475996D01*
X228600Y475996D02*
X228600Y489204D01*
X254000Y489204D02*
X254000Y475996D01*
X254000Y628396D02*
X254000Y641604D01*
X228600Y641604D02*
X228600Y628396D01*
X203200Y628396D02*
X203200Y641604D01*
X177800Y641604D02*
X177800Y628396D01*
X152400Y628396D02*
X152400Y641604D01*
X145796Y381000D02*
X159004Y381000D01*
X159004Y355600D02*
X145796Y355600D01*
X145796Y228600D02*
X159004Y228600D01*
X159004Y203200D02*
X145796Y203200D01*
X145796Y330200D02*
X159004Y330200D01*
X159004Y304800D02*
X145796Y304800D01*
X145796Y254000D02*
X159004Y254000D01*
X159004Y279400D02*
X145796Y279400D01*
X221996Y203200D02*
X235204Y203200D01*
X235204Y228600D02*
X221996Y228600D01*
X221996Y254000D02*
X235204Y254000D01*
X235204Y279400D02*
X221996Y279400D01*
X221996Y304800D02*
X235204Y304800D01*
X235204Y330200D02*
X221996Y330200D01*
X221996Y355600D02*
X235204Y355600D01*
X235204Y381000D02*
X221996Y381000D01*
X755396Y381000D02*
X768604Y381000D01*
X768604Y355600D02*
X755396Y355600D01*
X755396Y228600D02*
X768604Y228600D01*
X768604Y203200D02*
X755396Y203200D01*
X755396Y330200D02*
X768604Y330200D01*
X768604Y304800D02*
X755396Y304800D01*
X755396Y254000D02*
X768604Y254000D01*
X768604Y279400D02*
X755396Y279400D01*
X831596Y203200D02*
X844804Y203200D01*
X844804Y228600D02*
X831596Y228600D01*
X831596Y254000D02*
X844804Y254000D01*
X844804Y279400D02*
X831596Y279400D01*
X831596Y304800D02*
X844804Y304800D01*
X844804Y330200D02*
X831596Y330200D01*
X831596Y355600D02*
X844804Y355600D01*
X844804Y381000D02*
X831596Y381000D01*
X565404Y381000D02*
X552196Y381000D01*
X552196Y355600D02*
X565404Y355600D01*
X565404Y228600D02*
X552196Y228600D01*
X552196Y203200D02*
X565404Y203200D01*
X565404Y330200D02*
X552196Y330200D01*
X552196Y304800D02*
X565404Y304800D01*
X565404Y254000D02*
X552196Y254000D01*
X552196Y279400D02*
X565404Y279400D01*
X628396Y203200D02*
X641604Y203200D01*
X641604Y228600D02*
X628396Y228600D01*
X628396Y254000D02*
X641604Y254000D01*
X641604Y279400D02*
X628396Y279400D01*
X628396Y304800D02*
X641604Y304800D01*
X641604Y330200D02*
X628396Y330200D01*
X628396Y355600D02*
X641604Y355600D01*
X641604Y381000D02*
X628396Y381000D01*
X362204Y381000D02*
X348996Y381000D01*
X348996Y355600D02*
X362204Y355600D01*
X362204Y228600D02*
X348996Y228600D01*
X348996Y203200D02*
X362204Y203200D01*
X362204Y330200D02*
X348996Y330200D01*
X348996Y304800D02*
X362204Y304800D01*
X362204Y254000D02*
X348996Y254000D01*
X348996Y279400D02*
X362204Y279400D01*
X425196Y203200D02*
X438404Y203200D01*
X438404Y228600D02*
X425196Y228600D01*
X425196Y254000D02*
X438404Y254000D01*
X438404Y279400D02*
X425196Y279400D01*
X425196Y304800D02*
X438404Y304800D01*
X438404Y330200D02*
X425196Y330200D01*
X425196Y355600D02*
X438404Y355600D01*
X438404Y381000D02*
X425196Y381000D01*
D11*
X863600Y1371600D03*
X787400Y1371600D03*
D14*
X1498600Y1371600D03*
X1574800Y1371600D03*
X1397000Y1371600D03*
X1473200Y1371600D03*
X1295400Y1371600D03*
X1371600Y1371600D03*
X1193800Y1371600D03*
X1270000Y1371600D03*
D11*
X965200Y1371600D03*
X889000Y1371600D03*
X1066800Y1371600D03*
X990600Y1371600D03*
X1168400Y1371600D03*
X1092200Y1371600D03*
D14*
X787400Y1422400D03*
X812800Y1422400D03*
X889000Y1422400D03*
X914400Y1422400D03*
X990600Y1422400D03*
X1016000Y1422400D03*
X1092200Y1422400D03*
X1117600Y1422400D03*
X1193800Y1422400D03*
X1219200Y1422400D03*
X1295400Y1422400D03*
X1320800Y1422400D03*
X1397000Y1422400D03*
X1422400Y1422400D03*
X1498600Y1422400D03*
X1524000Y1422400D03*
X838200Y1473200D03*
X914400Y1473200D03*
X939800Y1473200D03*
X1016000Y1473200D03*
X1041400Y1473200D03*
X1117600Y1473200D03*
X1143000Y1473200D03*
X1219200Y1473200D03*
X1244600Y1473200D03*
X1320800Y1473200D03*
X1346200Y1473200D03*
X1422400Y1473200D03*
X1447800Y1473200D03*
X1524000Y1473200D03*
X736600Y1473200D03*
X812800Y1473200D03*
D12*
X177800Y1231900D03*
X177800Y1257300D03*
D10*
X393700Y1206500D03*
X393700Y1181100D03*
X368300Y1181100D03*
X368300Y1155700D03*
X355600Y927100D03*
X355600Y901700D03*
X381000Y952500D03*
X381000Y927100D03*
X736600Y1181100D03*
X736600Y1155700D03*
D13*
X463804Y1257300D02*
X450596Y1257300D01*
X450596Y1231900D02*
X463804Y1231900D01*
X463804Y1104900D02*
X450596Y1104900D01*
X526796Y1104900D02*
X540004Y1104900D01*
X463804Y1206500D02*
X450596Y1206500D01*
X450596Y1181100D02*
X463804Y1181100D01*
X463804Y1130300D02*
X450596Y1130300D01*
X450596Y1155700D02*
X463804Y1155700D01*
X526796Y1130300D02*
X540004Y1130300D01*
X540004Y1155700D02*
X526796Y1155700D01*
X526796Y1181100D02*
X540004Y1181100D01*
X540004Y1206500D02*
X526796Y1206500D01*
X526796Y1231900D02*
X540004Y1231900D01*
X540004Y1257300D02*
X526796Y1257300D01*
X463804Y1003300D02*
X450596Y1003300D01*
X450596Y977900D02*
X463804Y977900D01*
X463804Y850900D02*
X450596Y850900D01*
X450596Y825500D02*
X463804Y825500D01*
X463804Y952500D02*
X450596Y952500D01*
X450596Y927100D02*
X463804Y927100D01*
X463804Y876300D02*
X450596Y876300D01*
X450596Y901700D02*
X463804Y901700D01*
X463804Y800100D02*
X450596Y800100D01*
X450596Y774700D02*
X463804Y774700D01*
X526796Y774700D02*
X540004Y774700D01*
X540004Y800100D02*
X526796Y800100D01*
X526796Y825500D02*
X540004Y825500D01*
X540004Y850900D02*
X526796Y850900D01*
X526796Y876300D02*
X540004Y876300D01*
X540004Y901700D02*
X526796Y901700D01*
X526796Y927100D02*
X540004Y927100D01*
X540004Y952500D02*
X526796Y952500D01*
X526796Y977900D02*
X540004Y977900D01*
X540004Y1003300D02*
X526796Y1003300D01*
D15*
X254000Y1003300D03*
X254000Y977900D03*
X330200Y977900D03*
X330200Y1003300D03*
X254000Y952500D03*
X254000Y927100D03*
X330200Y952500D03*
X330200Y927100D03*
X635000Y1257300D03*
X635000Y1231900D03*
X711200Y1231900D03*
X711200Y1257300D03*
X635000Y1206500D03*
X635000Y1181100D03*
X711200Y1206500D03*
X711200Y1181100D03*
X266700Y1257300D03*
X266700Y1231900D03*
X342900Y1231900D03*
X342900Y1257300D03*
X266700Y1206500D03*
X266700Y1181100D03*
X342900Y1206500D03*
X342900Y1181100D03*
D13*
X641096Y1003300D02*
X654304Y1003300D01*
X654304Y977900D02*
X641096Y977900D01*
X641096Y850900D02*
X654304Y850900D01*
X654304Y825500D02*
X641096Y825500D01*
X641096Y952500D02*
X654304Y952500D01*
X654304Y927100D02*
X641096Y927100D01*
X641096Y876300D02*
X654304Y876300D01*
X654304Y901700D02*
X641096Y901700D01*
X717296Y825500D02*
X730504Y825500D01*
X730504Y850900D02*
X717296Y850900D01*
X717296Y876300D02*
X730504Y876300D01*
X730504Y901700D02*
X717296Y901700D01*
X717296Y927100D02*
X730504Y927100D01*
X730504Y952500D02*
X717296Y952500D01*
X717296Y977900D02*
X730504Y977900D01*
X730504Y1003300D02*
X717296Y1003300D01*
D11*
X127000Y1092200D03*
X101600Y1092200D03*
D10*
X355600Y1397000D03*
X355600Y1320800D03*
D11*
X152400Y1041400D03*
X76200Y1041400D03*
D14*
X254000Y1397000D03*
X330200Y1397000D03*
D10*
X228600Y977900D03*
X228600Y901700D03*
D12*
X355600Y952500D03*
X355600Y1028700D03*
D10*
X609600Y1231900D03*
X609600Y1155700D03*
X635000Y1155700D03*
X635000Y1079500D03*
D16*
X304000Y1473200D03*
X254000Y1473200D03*
X204000Y1473200D03*
D17*
X482600Y1422400D03*
X482600Y1473200D03*
X406400Y1473200D03*
X406400Y1422400D03*
D18*
X482600Y1549400D03*
X406400Y1397000D03*
D19*
X537210Y1447800D03*
D20*
X584200Y1447800D03*
X631190Y1447800D03*
D21*
X1092200Y1303020D02*
X1092200Y1287780D01*
X1117600Y1287780D02*
X1117600Y1303020D01*
X1143000Y1303020D02*
X1143000Y1287780D01*
X1168400Y1287780D02*
X1168400Y1303020D01*
X1193800Y1303020D02*
X1193800Y1287780D01*
X1219200Y1287780D02*
X1219200Y1303020D01*
X1244600Y1303020D02*
X1244600Y1287780D01*
X1270000Y1287780D02*
X1270000Y1303020D01*
X1092200Y1049020D02*
X1092200Y1033780D01*
X1117600Y1033780D02*
X1117600Y1049020D01*
X1143000Y1049020D02*
X1143000Y1033780D01*
X1168400Y1033780D02*
X1168400Y1049020D01*
X1193800Y1049020D02*
X1193800Y1033780D01*
X1219200Y1033780D02*
X1219200Y1049020D01*
X1244600Y1049020D02*
X1244600Y1033780D01*
X1270000Y1033780D02*
X1270000Y1049020D01*
D22*
X1270000Y571500D03*
X1270000Y546100D03*
X1244600Y571500D03*
X1244600Y546100D03*
X1219200Y571500D03*
X1219200Y546100D03*
X1193800Y571500D03*
X1193800Y546100D03*
X1168400Y571500D03*
X1168400Y546100D03*
X1143000Y571500D03*
X1143000Y546100D03*
X1117600Y571500D03*
X1117600Y546100D03*
X1092200Y571500D03*
X1092200Y546100D03*
X1270000Y469900D03*
X1270000Y444500D03*
X1244600Y469900D03*
X1244600Y444500D03*
X1219200Y469900D03*
X1219200Y444500D03*
X1193800Y469900D03*
X1193800Y444500D03*
X1168400Y469900D03*
X1168400Y444500D03*
X1143000Y469900D03*
X1143000Y444500D03*
X1117600Y469900D03*
X1117600Y444500D03*
X1092200Y469900D03*
X1092200Y444500D03*
X1270000Y368300D03*
X1270000Y342900D03*
X1244600Y368300D03*
X1244600Y342900D03*
X1219200Y368300D03*
X1219200Y342900D03*
X1193800Y368300D03*
X1193800Y342900D03*
X1168400Y368300D03*
X1168400Y342900D03*
X1143000Y368300D03*
X1143000Y342900D03*
X1117600Y368300D03*
X1117600Y342900D03*
X1092200Y368300D03*
X1092200Y342900D03*
X1270000Y266700D03*
X1270000Y241300D03*
X1244600Y266700D03*
X1244600Y241300D03*
X1219200Y266700D03*
X1219200Y241300D03*
X1193800Y266700D03*
X1193800Y241300D03*
X1168400Y266700D03*
X1168400Y241300D03*
X1143000Y266700D03*
X1143000Y241300D03*
X1117600Y266700D03*
X1117600Y241300D03*
X1092200Y266700D03*
X1092200Y241300D03*
D21*
X1092200Y1097280D02*
X1092200Y1112520D01*
X1117600Y1112520D02*
X1117600Y1097280D01*
X1143000Y1097280D02*
X1143000Y1112520D01*
X1168400Y1112520D02*
X1168400Y1097280D01*
X1193800Y1097280D02*
X1193800Y1112520D01*
X1219200Y1112520D02*
X1219200Y1097280D01*
X1244600Y1097280D02*
X1244600Y1112520D01*
X1270000Y1112520D02*
X1270000Y1097280D01*
X1092200Y1160780D02*
X1092200Y1176020D01*
X1117600Y1176020D02*
X1117600Y1160780D01*
X1143000Y1160780D02*
X1143000Y1176020D01*
X1168400Y1176020D02*
X1168400Y1160780D01*
X1193800Y1160780D02*
X1193800Y1176020D01*
X1219200Y1176020D02*
X1219200Y1160780D01*
X1244600Y1160780D02*
X1244600Y1176020D01*
X1270000Y1176020D02*
X1270000Y1160780D01*
X1092200Y1224280D02*
X1092200Y1239520D01*
X1117600Y1239520D02*
X1117600Y1224280D01*
X1143000Y1224280D02*
X1143000Y1239520D01*
X1168400Y1239520D02*
X1168400Y1224280D01*
X1193800Y1224280D02*
X1193800Y1239520D01*
X1219200Y1239520D02*
X1219200Y1224280D01*
X1244600Y1224280D02*
X1244600Y1239520D01*
X1270000Y1239520D02*
X1270000Y1224280D01*
X1092200Y731520D02*
X1092200Y716280D01*
X1117600Y716280D02*
X1117600Y731520D01*
X1143000Y731520D02*
X1143000Y716280D01*
X1168400Y716280D02*
X1168400Y731520D01*
X1193800Y731520D02*
X1193800Y716280D01*
X1219200Y716280D02*
X1219200Y731520D01*
X1244600Y731520D02*
X1244600Y716280D01*
X1270000Y716280D02*
X1270000Y731520D01*
X1092200Y779780D02*
X1092200Y795020D01*
X1117600Y795020D02*
X1117600Y779780D01*
X1143000Y779780D02*
X1143000Y795020D01*
X1168400Y795020D02*
X1168400Y779780D01*
X1193800Y779780D02*
X1193800Y795020D01*
X1219200Y795020D02*
X1219200Y779780D01*
X1244600Y779780D02*
X1244600Y795020D01*
X1270000Y795020D02*
X1270000Y779780D01*
X1092200Y843280D02*
X1092200Y858520D01*
X1117600Y858520D02*
X1117600Y843280D01*
X1143000Y843280D02*
X1143000Y858520D01*
X1168400Y858520D02*
X1168400Y843280D01*
X1193800Y843280D02*
X1193800Y858520D01*
X1219200Y858520D02*
X1219200Y843280D01*
X1244600Y843280D02*
X1244600Y858520D01*
X1270000Y858520D02*
X1270000Y843280D01*
X1092200Y906780D02*
X1092200Y922020D01*
X1117600Y922020D02*
X1117600Y906780D01*
X1143000Y906780D02*
X1143000Y922020D01*
X1168400Y922020D02*
X1168400Y906780D01*
X1193800Y906780D02*
X1193800Y922020D01*
X1219200Y922020D02*
X1219200Y906780D01*
X1244600Y906780D02*
X1244600Y922020D01*
X1270000Y922020D02*
X1270000Y906780D01*
X1092200Y970280D02*
X1092200Y985520D01*
X1117600Y985520D02*
X1117600Y970280D01*
X1143000Y970280D02*
X1143000Y985520D01*
X1168400Y985520D02*
X1168400Y970280D01*
X1193800Y970280D02*
X1193800Y985520D01*
X1219200Y985520D02*
X1219200Y970280D01*
X1244600Y970280D02*
X1244600Y985520D01*
X1270000Y985520D02*
X1270000Y970280D01*
X96520Y1231900D02*
X81280Y1231900D01*
X81280Y1257300D02*
X96520Y1257300D01*
X805180Y1079500D02*
X820420Y1079500D01*
X820420Y1054100D02*
X805180Y1054100D01*
D23*
X1155192Y231648D03*
X1234440Y390144D03*
X935736Y448056D03*
X1152144Y591312D03*
X505968Y496824D03*
X1222248Y588264D03*
X1066800Y481584D03*
X1182624Y496824D03*
X649224Y435864D03*
X728472Y460248D03*
X758952Y460248D03*
X826008Y441960D03*
X1152144Y387096D03*
X1152144Y399288D03*
X1152144Y502920D03*
X1149096Y426720D03*
X338328Y158496D03*
X835152Y140208D03*
X871728Y176784D03*
X1042416Y347472D03*
X1072896Y463296D03*
X1179576Y396240D03*
X679704Y496824D03*
X1127760Y390144D03*
X1164336Y530352D03*
X1161288Y509016D03*
X1075944Y600456D03*
X1133856Y600456D03*
X1042416Y466344D03*
X1118616Y527304D03*
X1130808Y316992D03*
X1118616Y396240D03*
X1030224Y466344D03*
X826008Y176784D03*
X1091184Y307848D03*
X978408Y176784D03*
X1033272Y505968D03*
X1011936Y359664D03*
X1082040Y402336D03*
X1036320Y487680D03*
X481584Y1124712D03*
X582168Y1030224D03*
X615696Y1021080D03*
X573024Y1063752D03*
X896112Y384048D03*
X905256Y390144D03*
X877824Y384048D03*
X886968Y390144D03*
X771144Y588264D03*
X658368Y448056D03*
X667512Y454152D03*
X588264Y390144D03*
X478536Y384048D03*
X487680Y390144D03*
X368808Y429768D03*
M02*
