M48
;GenerationSoftware,Autodesk,EAGLE,9.3.2*%
;CreationDate,2019-07-22T08:26:18Z*%
FMAT,2
ICI,OFF
METRIC,TZ,000.000
T4C0.350
T3C0.813
T2C1.016
T1C1.854
%
G90
M71
T1
X10160Y156591
X10160Y161290
X10160Y165989
T2
X146050Y30480
X148590Y30480
X146050Y27940
X148590Y27940
X146050Y25400
X148590Y25400
X146050Y22860
X148590Y22860
X146050Y20320
X148590Y20320
X148590Y73660
X148590Y76200
X148590Y78740
X148590Y81280
X148590Y83820
X148590Y86360
X148590Y88900
X148590Y91440
X8890Y80010
X11430Y80010
X8890Y77470
X11430Y77470
X8890Y74930
X11430Y74930
X8890Y72390
X11430Y72390
X8890Y69850
X11430Y69850
X8890Y67310
X11430Y67310
X8890Y64770
X11430Y64770
X8890Y62230
X11430Y62230
X12700Y143510
X12700Y140970
X12700Y135890
X12700Y133350
X12700Y119380
X12700Y121920
X12700Y124460
X12700Y127000
X146050Y38100
X148590Y38100
X146050Y35560
X148590Y35560
X146050Y33020
X148590Y33020
T3
X30480Y41910
X30480Y39370
X30480Y52070
X30480Y49530
X30480Y44450
X30480Y46990
X38100Y39370
X38100Y41910
X38100Y44450
X38100Y46990
X38100Y49530
X38100Y52070
X38100Y54610
X38100Y57150
X30480Y80010
X30480Y77470
X30480Y64770
X30480Y62230
X30480Y74930
X30480Y72390
X30480Y67310
X30480Y69850
X38100Y64770
X38100Y67310
X38100Y69850
X38100Y72390
X38100Y74930
X38100Y77470
X38100Y80010
X30480Y102870
X30480Y100330
X30480Y87630
X30480Y85090
X30480Y97790
X30480Y95250
X30480Y90170
X30480Y92710
X38100Y85090
X38100Y87630
X38100Y90170
X38100Y92710
X38100Y95250
X38100Y97790
X38100Y100330
X38100Y102870
X80010Y140970
X80010Y138430
X80010Y125730
X80010Y123190
X80010Y135890
X80010Y133350
X80010Y128270
X80010Y130810
X87630Y123190
X87630Y125730
X87630Y128270
X87630Y130810
X87630Y133350
X87630Y135890
X87630Y138430
X87630Y140970
X62230Y140970
X62230Y138430
X62230Y125730
X62230Y123190
X62230Y135890
X62230Y133350
X62230Y128270
X62230Y130810
X69850Y123190
X69850Y125730
X69850Y128270
X69850Y130810
X69850Y133350
X69850Y135890
X69850Y138430
X93980Y74930
X69850Y140970
X147320Y165100
X149860Y165100
X109220Y165100
X111760Y165100
X140970Y165100
X143510Y165100
X134620Y165100
X137160Y165100
X128270Y165100
X130810Y165100
X121920Y165100
X124460Y165100
X115570Y165100
X118110Y165100
X102870Y165100
X105410Y165100
X149860Y152400
X149860Y160020
X111760Y152400
X111760Y160020
X143510Y160020
X137160Y152400
X137160Y160020
X130810Y152400
X130810Y160020
X124460Y152400
X124460Y160020
X118110Y152400
X118110Y160020
X105410Y152400
X105410Y160020
X60960Y90170
X60960Y87630
X60960Y74930
X68580Y74930
X60960Y85090
X60960Y82550
X60960Y77470
X60960Y80010
X68580Y77470
X68580Y80010
X68580Y82550
X68580Y85090
X68580Y87630
X68580Y90170
X143510Y152400
X78740Y152400
X81280Y152400
X83820Y152400
X86360Y152400
X88900Y152400
X88900Y167640
X86360Y167640
X83820Y167640
X81280Y167640
X78740Y167640
X60960Y152400
X63500Y152400
X66040Y152400
X68580Y152400
X71120Y152400
X71120Y167640
X68580Y167640
X66040Y167640
X63500Y167640
X60960Y167640
X43180Y152400
X45720Y152400
X48260Y152400
X50800Y152400
X53340Y152400
X53340Y167640
X50800Y167640
X48260Y167640
X45720Y167640
X43180Y167640
X25400Y152400
X27940Y152400
X30480Y152400
X33020Y152400
X35560Y152400
X35560Y167640
X33020Y167640
X30480Y167640
X27940Y167640
X25400Y167640
X124460Y143510
X124460Y140970
X124460Y138430
X124460Y135890
X124460Y133350
X124460Y130810
X124460Y128270
X124460Y125730
X124460Y123190
X124460Y120650
X124460Y118110
X124460Y115570
X124460Y113030
X124460Y110490
X139700Y110490
X139700Y113030
X139700Y115570
X139700Y118110
X139700Y120650
X139700Y123190
X139700Y125730
X139700Y128270
X139700Y130810
X139700Y133350
X139700Y135890
X139700Y138430
X139700Y140970
X139700Y143510
X44450Y140970
X44450Y138430
X44450Y125730
X44450Y123190
X44450Y135890
X44450Y133350
X44450Y128270
X44450Y130810
X52070Y123190
X52070Y125730
X52070Y128270
X52070Y130810
X52070Y133350
X52070Y135890
X52070Y138430
X52070Y140970
X26670Y140970
X26670Y138430
X26670Y125730
X26670Y123190
X26670Y135890
X26670Y133350
X26670Y128270
X26670Y130810
X34290Y123190
X34290Y125730
X34290Y128270
X34290Y130810
X34290Y133350
X34290Y135890
X34290Y138430
X34290Y140970
X86360Y102870
X86360Y100330
X86360Y87630
X86360Y85090
X86360Y97790
X86360Y95250
X86360Y90170
X86360Y92710
X93980Y85090
X93980Y87630
X93980Y90170
X93980Y92710
X93980Y95250
X93980Y97790
X93980Y100330
X93980Y102870
X86360Y77470
X86360Y74930
X86360Y62230
X86360Y59690
X86360Y72390
X86360Y69850
X86360Y64770
X86360Y67310
X93980Y59690
X93980Y62230
X93980Y64770
X93980Y67310
X93980Y69850
X93980Y72390
X38100Y62230
X93980Y77470
X60960Y64770
X60960Y62230
X60960Y49530
X68580Y49530
X60960Y59690
X60960Y57150
X60960Y52070
X60960Y54610
X68580Y52070
X68580Y54610
X68580Y57150
X68580Y59690
X68580Y62230
X68580Y64770
X105410Y50800
X105410Y48260
X105410Y35560
X105410Y33020
X105410Y45720
X105410Y43180
X105410Y38100
X105410Y40640
X113030Y33020
X113030Y35560
X113030Y38100
X113030Y40640
X113030Y43180
X113030Y45720
X113030Y48260
X113030Y50800
X105410Y24130
X105410Y21590
X105410Y8890
X105410Y6350
X105410Y19050
X105410Y16510
X105410Y11430
X105410Y13970
X113030Y6350
X113030Y8890
X113030Y11430
X113030Y13970
X113030Y16510
X113030Y19050
X113030Y21590
X113030Y24130
X86360Y50800
X86360Y48260
X86360Y35560
X86360Y33020
X86360Y45720
X86360Y43180
X86360Y38100
X86360Y40640
X93980Y33020
X93980Y35560
X93980Y38100
X93980Y40640
X93980Y43180
X93980Y45720
X93980Y48260
X93980Y50800
X86360Y24130
X86360Y21590
X86360Y8890
X86360Y6350
X86360Y19050
X86360Y16510
X86360Y11430
X86360Y13970
X93980Y6350
X93980Y8890
X93980Y11430
X93980Y13970
X93980Y16510
X93980Y19050
X93980Y21590
X93980Y24130
X105410Y102870
X105410Y100330
X105410Y87630
X105410Y85090
X105410Y97790
X105410Y95250
X105410Y90170
X105410Y92710
X113030Y85090
X113030Y87630
X113030Y90170
X113030Y92710
X113030Y95250
X113030Y97790
X113030Y100330
X113030Y102870
X105410Y77470
X105410Y74930
X105410Y62230
X105410Y59690
X105410Y72390
X105410Y69850
X105410Y64770
X105410Y67310
X113030Y59690
X113030Y62230
X113030Y64770
X113030Y67310
X113030Y69850
X113030Y72390
X113030Y74930
X113030Y77470
X30480Y34290
X30480Y31750
X30480Y19050
X30480Y16510
X30480Y29210
X30480Y26670
X30480Y21590
X30480Y24130
X38100Y16510
X38100Y19050
X38100Y21590
X38100Y24130
X38100Y26670
X38100Y29210
X38100Y31750
X38100Y34290
X30480Y57150
X30480Y54610
T4
X127711Y114300
X114605Y78943
X114605Y60960
X135331Y145085
X114605Y57912
X135941Y143256
X144170Y17069
X91745Y24994
X148438Y17678
X109728Y30785
X111862Y28651
X120091Y27127
X128626Y27127
X109728Y51816
X112166Y54254
X84734Y82601
X23470Y122834
X54559Y93574
X5486Y85344
X27432Y119786
X128321Y121615
X118567Y119482
X67361Y111862
X56693Y111862
X5486Y49378
X133807Y135026
X111862Y163373
X13716Y149047
X133807Y136246
X23774Y146304
X8534Y58826
X28651Y119786
X27127Y59131
X27127Y72542
X17069Y93574
X37795Y119786
X136550Y142342
X42672Y143561
X13716Y93574
X33833Y119786
X103937Y144170
X86868Y144170
X46025Y143561
X40538Y72847
X46939Y103327
X105156Y144170
X86258Y145085
X43891Y143561
X42062Y49987
X41453Y63703
X58522Y103632
X60046Y105461
X111252Y126797
X92659Y122834
X48463Y96012
X54254Y101803
X113081Y126492
X90830Y122530
X32918Y79248
X46939Y94793
X49378Y103327
X103937Y139294
X86258Y142646
X64313Y143256
X56693Y103327
X59131Y107290
X120091Y123139
X117958Y122834
X52426Y97231
X112471Y125578
X90221Y121615
X41453Y103327
X57607Y104242
X113386Y124663
X47854Y96926
X54254Y103327
X55474Y103327
X77724Y126797
X116129Y121920
X77724Y123139
X83210Y141732
X55474Y142037
X56388Y142646
X47854Y146304
X28956Y144475
X39014Y141732
X29870Y143866
X100584Y6401
X100584Y18288
X100889Y24994
X110642Y11887
X109423Y23774
X108204Y24994
X88087Y1829
X116129Y17678
X115519Y29566
X51816Y38405
X86563Y28651
X87782Y27432
X96317Y38100
X108814Y39014
X57302Y37490
X88087Y5486
X88697Y10058
X108814Y9449
X42977Y51816
X77419Y44196
X80467Y34442
X87173Y30480
X90526Y30480
X80467Y35662
X87782Y31394
X90526Y39624
X79248Y58826
X77114Y72238
X72238Y91135
X36271Y105461
X30175Y13716
X45110Y47549
X40234Y47549
X36576Y53340
X34138Y80467
X42977Y53035
X117043Y123749
X7925Y76200
X22250Y81686
X9754Y58826
X113995Y52426
X111557Y44501
X103022Y24994
X99670Y16154
X79248Y56388
X81382Y19507
X81991Y57302
X83820Y83515
X81991Y77724
X78334Y72238
X78334Y60960
X78334Y54864
X68580Y93574
X62484Y78638
X80467Y43282
X82906Y84430
X84734Y56998
X84734Y54559
X109728Y35662
X111557Y30480
X113995Y28042
X112776Y56083
X99060Y58826
X108814Y55169
X110947Y51816
X99670Y24994
X99670Y20422
X89002Y61265
X82906Y53645
X114605Y86258
X116434Y78029
X115519Y48463
X109728Y85344
X113690Y81382
X118872Y79858
X118262Y75895
X118262Y48463
X111252Y93878
X116434Y92354
X117958Y89916
X118262Y78029
X117348Y47854
X109118Y41148
X114605Y89002
X117348Y77419
X114605Y47244
X34747Y95098
X83820Y55474
M30