G04 EAGLE Gerber RS-274X export*
G75*
%MOMM*%
%FSLAX34Y34*%
%LPD*%
%INSoldermask Top*%
%IPPOS*%
%AMOC8*
5,1,8,0,0,1.08239X$1,22.5*%
G01*
%ADD10P,1.649562X8X292.500000*%
%ADD11C,1.524000*%
%ADD12C,1.711200*%
%ADD13C,4.419200*%
%ADD14C,1.727200*%
%ADD15P,1.869504X8X22.500000*%
%ADD16C,1.320800*%
%ADD17P,1.649562X8X112.500000*%
%ADD18P,1.649562X8X202.500000*%
%ADD19C,0.959600*%


D10*
X1587500Y723900D03*
X1587500Y698500D03*
D11*
X692404Y165100D02*
X679196Y165100D01*
X679196Y190500D02*
X692404Y190500D01*
X692404Y215900D02*
X679196Y215900D01*
X679196Y241300D02*
X692404Y241300D01*
X692404Y266700D02*
X679196Y266700D01*
X679196Y292100D02*
X692404Y292100D01*
X692404Y317500D02*
X679196Y317500D01*
X679196Y342900D02*
X692404Y342900D01*
X692404Y368300D02*
X679196Y368300D01*
X679196Y393700D02*
X692404Y393700D01*
X692404Y419100D02*
X679196Y419100D01*
X679196Y444500D02*
X692404Y444500D01*
X692404Y469900D02*
X679196Y469900D01*
X679196Y495300D02*
X692404Y495300D01*
X540004Y495300D02*
X526796Y495300D01*
X526796Y469900D02*
X540004Y469900D01*
X540004Y444500D02*
X526796Y444500D01*
X526796Y419100D02*
X540004Y419100D01*
X540004Y393700D02*
X526796Y393700D01*
X526796Y368300D02*
X540004Y368300D01*
X540004Y342900D02*
X526796Y342900D01*
X526796Y317500D02*
X540004Y317500D01*
X540004Y292100D02*
X526796Y292100D01*
X526796Y266700D02*
X540004Y266700D01*
X540004Y241300D02*
X526796Y241300D01*
X526796Y215900D02*
X540004Y215900D01*
X540004Y190500D02*
X526796Y190500D01*
X526796Y165100D02*
X540004Y165100D01*
X159004Y177800D02*
X145796Y177800D01*
X145796Y152400D02*
X159004Y152400D01*
X159004Y25400D02*
X145796Y25400D01*
X221996Y25400D02*
X235204Y25400D01*
X159004Y127000D02*
X145796Y127000D01*
X145796Y101600D02*
X159004Y101600D01*
X159004Y50800D02*
X145796Y50800D01*
X145796Y76200D02*
X159004Y76200D01*
X221996Y50800D02*
X235204Y50800D01*
X235204Y76200D02*
X221996Y76200D01*
X221996Y101600D02*
X235204Y101600D01*
X235204Y127000D02*
X221996Y127000D01*
X221996Y152400D02*
X235204Y152400D01*
X235204Y177800D02*
X221996Y177800D01*
X1377696Y825500D02*
X1390904Y825500D01*
X1390904Y800100D02*
X1377696Y800100D01*
X1377696Y673100D02*
X1390904Y673100D01*
X1453896Y673100D02*
X1467104Y673100D01*
X1390904Y774700D02*
X1377696Y774700D01*
X1377696Y749300D02*
X1390904Y749300D01*
X1390904Y698500D02*
X1377696Y698500D01*
X1377696Y723900D02*
X1390904Y723900D01*
X1453896Y698500D02*
X1467104Y698500D01*
X1467104Y723900D02*
X1453896Y723900D01*
X1453896Y749300D02*
X1467104Y749300D01*
X1467104Y774700D02*
X1453896Y774700D01*
X1453896Y800100D02*
X1467104Y800100D01*
X1467104Y825500D02*
X1453896Y825500D01*
X844804Y165100D02*
X831596Y165100D01*
X831596Y139700D02*
X844804Y139700D01*
X844804Y12700D02*
X831596Y12700D01*
X907796Y12700D02*
X921004Y12700D01*
X844804Y114300D02*
X831596Y114300D01*
X831596Y88900D02*
X844804Y88900D01*
X844804Y38100D02*
X831596Y38100D01*
X831596Y63500D02*
X844804Y63500D01*
X907796Y38100D02*
X921004Y38100D01*
X921004Y63500D02*
X907796Y63500D01*
X907796Y88900D02*
X921004Y88900D01*
X921004Y114300D02*
X907796Y114300D01*
X907796Y139700D02*
X921004Y139700D01*
X921004Y165100D02*
X907796Y165100D01*
X1022096Y825500D02*
X1035304Y825500D01*
X1035304Y800100D02*
X1022096Y800100D01*
X1022096Y673100D02*
X1035304Y673100D01*
X1035304Y647700D02*
X1022096Y647700D01*
X1022096Y774700D02*
X1035304Y774700D01*
X1035304Y749300D02*
X1022096Y749300D01*
X1022096Y698500D02*
X1035304Y698500D01*
X1035304Y723900D02*
X1022096Y723900D01*
X1098296Y647700D02*
X1111504Y647700D01*
X1111504Y673100D02*
X1098296Y673100D01*
X1098296Y698500D02*
X1111504Y698500D01*
X1111504Y723900D02*
X1098296Y723900D01*
X1098296Y749300D02*
X1111504Y749300D01*
X1111504Y774700D02*
X1098296Y774700D01*
X1098296Y800100D02*
X1111504Y800100D01*
X1111504Y825500D02*
X1098296Y825500D01*
X1035304Y495300D02*
X1022096Y495300D01*
X1022096Y469900D02*
X1035304Y469900D01*
X1035304Y342900D02*
X1022096Y342900D01*
X1022096Y317500D02*
X1035304Y317500D01*
X1035304Y444500D02*
X1022096Y444500D01*
X1022096Y419100D02*
X1035304Y419100D01*
X1035304Y368300D02*
X1022096Y368300D01*
X1022096Y393700D02*
X1035304Y393700D01*
X1035304Y292100D02*
X1022096Y292100D01*
X1022096Y266700D02*
X1035304Y266700D01*
X1098296Y266700D02*
X1111504Y266700D01*
X1111504Y292100D02*
X1098296Y292100D01*
X1098296Y317500D02*
X1111504Y317500D01*
X1111504Y342900D02*
X1098296Y342900D01*
X1098296Y368300D02*
X1111504Y368300D01*
X1111504Y393700D02*
X1098296Y393700D01*
X1098296Y419100D02*
X1111504Y419100D01*
X1111504Y444500D02*
X1098296Y444500D01*
X1098296Y469900D02*
X1111504Y469900D01*
X1111504Y495300D02*
X1098296Y495300D01*
X844804Y495300D02*
X831596Y495300D01*
X831596Y469900D02*
X844804Y469900D01*
X844804Y342900D02*
X831596Y342900D01*
X831596Y317500D02*
X844804Y317500D01*
X844804Y444500D02*
X831596Y444500D01*
X831596Y419100D02*
X844804Y419100D01*
X844804Y368300D02*
X831596Y368300D01*
X831596Y393700D02*
X844804Y393700D01*
X844804Y292100D02*
X831596Y292100D01*
X831596Y266700D02*
X844804Y266700D01*
X907796Y266700D02*
X921004Y266700D01*
X921004Y292100D02*
X907796Y292100D01*
X907796Y317500D02*
X921004Y317500D01*
X921004Y342900D02*
X907796Y342900D01*
X907796Y368300D02*
X921004Y368300D01*
X921004Y393700D02*
X907796Y393700D01*
X907796Y419100D02*
X921004Y419100D01*
X921004Y444500D02*
X907796Y444500D01*
X907796Y469900D02*
X921004Y469900D01*
X921004Y495300D02*
X907796Y495300D01*
X667004Y825500D02*
X653796Y825500D01*
X653796Y800100D02*
X667004Y800100D01*
X667004Y673100D02*
X653796Y673100D01*
X653796Y647700D02*
X667004Y647700D01*
X667004Y774700D02*
X653796Y774700D01*
X653796Y749300D02*
X667004Y749300D01*
X667004Y698500D02*
X653796Y698500D01*
X653796Y723900D02*
X667004Y723900D01*
X667004Y622300D02*
X653796Y622300D01*
X653796Y596900D02*
X667004Y596900D01*
X729996Y596900D02*
X743204Y596900D01*
X743204Y622300D02*
X729996Y622300D01*
X729996Y647700D02*
X743204Y647700D01*
X743204Y673100D02*
X729996Y673100D01*
X729996Y698500D02*
X743204Y698500D01*
X743204Y723900D02*
X729996Y723900D01*
X729996Y749300D02*
X743204Y749300D01*
X743204Y774700D02*
X729996Y774700D01*
X729996Y800100D02*
X743204Y800100D01*
X743204Y825500D02*
X729996Y825500D01*
X501904Y825500D02*
X488696Y825500D01*
X488696Y800100D02*
X501904Y800100D01*
X501904Y673100D02*
X488696Y673100D01*
X488696Y647700D02*
X501904Y647700D01*
X501904Y774700D02*
X488696Y774700D01*
X488696Y749300D02*
X501904Y749300D01*
X501904Y698500D02*
X488696Y698500D01*
X488696Y723900D02*
X501904Y723900D01*
X501904Y622300D02*
X488696Y622300D01*
X488696Y596900D02*
X501904Y596900D01*
X564896Y596900D02*
X578104Y596900D01*
X578104Y622300D02*
X564896Y622300D01*
X564896Y647700D02*
X578104Y647700D01*
X578104Y673100D02*
X564896Y673100D01*
X564896Y698500D02*
X578104Y698500D01*
X578104Y723900D02*
X564896Y723900D01*
X564896Y749300D02*
X578104Y749300D01*
X578104Y774700D02*
X564896Y774700D01*
X564896Y800100D02*
X578104Y800100D01*
X578104Y825500D02*
X564896Y825500D01*
X831596Y825500D02*
X844804Y825500D01*
X844804Y800100D02*
X831596Y800100D01*
X831596Y673100D02*
X844804Y673100D01*
X844804Y647700D02*
X831596Y647700D01*
X831596Y774700D02*
X844804Y774700D01*
X844804Y749300D02*
X831596Y749300D01*
X831596Y698500D02*
X844804Y698500D01*
X844804Y723900D02*
X831596Y723900D01*
X831596Y622300D02*
X844804Y622300D01*
X844804Y596900D02*
X831596Y596900D01*
X907796Y596900D02*
X921004Y596900D01*
X921004Y622300D02*
X907796Y622300D01*
X907796Y647700D02*
X921004Y647700D01*
X921004Y673100D02*
X907796Y673100D01*
X907796Y698500D02*
X921004Y698500D01*
X921004Y723900D02*
X907796Y723900D01*
X907796Y749300D02*
X921004Y749300D01*
X921004Y774700D02*
X907796Y774700D01*
X907796Y800100D02*
X921004Y800100D01*
X921004Y825500D02*
X907796Y825500D01*
D12*
X1473200Y411500D03*
X1473200Y388600D03*
X1473200Y365700D03*
X1473200Y342800D03*
X1473200Y319900D03*
X1498600Y422900D03*
X1498600Y400000D03*
X1498600Y377100D03*
X1498600Y354200D03*
X1498600Y331300D03*
X1524000Y411500D03*
X1524000Y388600D03*
X1524000Y365700D03*
X1524000Y342800D03*
X1524000Y319900D03*
D13*
X1498600Y243300D03*
X1498600Y493300D03*
D14*
X952500Y919480D02*
X952500Y934720D01*
X977900Y934720D02*
X977900Y919480D01*
X1003300Y919480D02*
X1003300Y934720D01*
X1028700Y934720D02*
X1028700Y919480D01*
X1054100Y919480D02*
X1054100Y934720D01*
X1079500Y934720D02*
X1079500Y919480D01*
X1104900Y919480D02*
X1104900Y934720D01*
X1130300Y934720D02*
X1130300Y919480D01*
D15*
X241300Y901700D03*
X241300Y927100D03*
X266700Y901700D03*
X266700Y927100D03*
X292100Y901700D03*
X292100Y927100D03*
X317500Y901700D03*
X317500Y927100D03*
X342900Y901700D03*
X342900Y927100D03*
X368300Y901700D03*
X368300Y927100D03*
X393700Y901700D03*
X393700Y927100D03*
X419100Y901700D03*
X419100Y927100D03*
D14*
X762000Y919480D02*
X762000Y934720D01*
X787400Y934720D02*
X787400Y919480D01*
D15*
X177800Y927100D03*
D14*
X533400Y919480D02*
X533400Y934720D01*
X558800Y934720D02*
X558800Y919480D01*
X584200Y919480D02*
X584200Y934720D01*
D16*
X1518412Y736600D02*
X1529588Y736600D01*
X1529588Y685800D02*
X1518412Y685800D01*
D10*
X1562100Y698500D03*
X1562100Y622300D03*
X1562100Y800100D03*
X1562100Y723900D03*
D17*
X1511300Y38100D03*
X1511300Y114300D03*
X1422400Y38100D03*
X1422400Y114300D03*
D10*
X1460500Y63500D03*
X1479550Y76200D03*
X1460500Y88900D03*
D11*
X1213104Y825500D02*
X1199896Y825500D01*
X1199896Y800100D02*
X1213104Y800100D01*
X1213104Y673100D02*
X1199896Y673100D01*
X1199896Y647700D02*
X1213104Y647700D01*
X1213104Y774700D02*
X1199896Y774700D01*
X1199896Y749300D02*
X1213104Y749300D01*
X1213104Y698500D02*
X1199896Y698500D01*
X1199896Y723900D02*
X1213104Y723900D01*
X1276096Y647700D02*
X1289304Y647700D01*
X1289304Y673100D02*
X1276096Y673100D01*
X1276096Y698500D02*
X1289304Y698500D01*
X1289304Y723900D02*
X1276096Y723900D01*
X1276096Y749300D02*
X1289304Y749300D01*
X1289304Y774700D02*
X1276096Y774700D01*
X1276096Y800100D02*
X1289304Y800100D01*
X1289304Y825500D02*
X1276096Y825500D01*
X1213104Y165100D02*
X1199896Y165100D01*
X1199896Y139700D02*
X1213104Y139700D01*
X1213104Y12700D02*
X1199896Y12700D01*
X1199896Y-12700D02*
X1213104Y-12700D01*
X1213104Y114300D02*
X1199896Y114300D01*
X1199896Y88900D02*
X1213104Y88900D01*
X1213104Y38100D02*
X1199896Y38100D01*
X1199896Y63500D02*
X1213104Y63500D01*
X1276096Y-12700D02*
X1289304Y-12700D01*
X1289304Y12700D02*
X1276096Y12700D01*
X1276096Y38100D02*
X1289304Y38100D01*
X1289304Y63500D02*
X1276096Y63500D01*
X1276096Y88900D02*
X1289304Y88900D01*
X1289304Y114300D02*
X1276096Y114300D01*
X1276096Y139700D02*
X1289304Y139700D01*
X1289304Y165100D02*
X1276096Y165100D01*
X1213104Y495300D02*
X1199896Y495300D01*
X1199896Y469900D02*
X1213104Y469900D01*
X1213104Y342900D02*
X1199896Y342900D01*
X1199896Y317500D02*
X1213104Y317500D01*
X1213104Y444500D02*
X1199896Y444500D01*
X1199896Y419100D02*
X1213104Y419100D01*
X1213104Y368300D02*
X1199896Y368300D01*
X1199896Y393700D02*
X1213104Y393700D01*
X1276096Y317500D02*
X1289304Y317500D01*
X1289304Y342900D02*
X1276096Y342900D01*
X1276096Y368300D02*
X1289304Y368300D01*
X1289304Y393700D02*
X1276096Y393700D01*
X1276096Y419100D02*
X1289304Y419100D01*
X1289304Y444500D02*
X1276096Y444500D01*
X1276096Y469900D02*
X1289304Y469900D01*
X1289304Y495300D02*
X1276096Y495300D01*
X1035304Y165100D02*
X1022096Y165100D01*
X1022096Y139700D02*
X1035304Y139700D01*
X1035304Y12700D02*
X1022096Y12700D01*
X1098296Y12700D02*
X1111504Y12700D01*
X1035304Y114300D02*
X1022096Y114300D01*
X1022096Y88900D02*
X1035304Y88900D01*
X1035304Y38100D02*
X1022096Y38100D01*
X1022096Y63500D02*
X1035304Y63500D01*
X1098296Y38100D02*
X1111504Y38100D01*
X1111504Y63500D02*
X1098296Y63500D01*
X1098296Y88900D02*
X1111504Y88900D01*
X1111504Y114300D02*
X1098296Y114300D01*
X1098296Y139700D02*
X1111504Y139700D01*
X1111504Y165100D02*
X1098296Y165100D01*
X324104Y495300D02*
X310896Y495300D01*
X310896Y469900D02*
X324104Y469900D01*
X324104Y342900D02*
X310896Y342900D01*
X310896Y317500D02*
X324104Y317500D01*
X324104Y444500D02*
X310896Y444500D01*
X310896Y419100D02*
X324104Y419100D01*
X324104Y368300D02*
X310896Y368300D01*
X310896Y393700D02*
X324104Y393700D01*
X387096Y317500D02*
X400304Y317500D01*
X400304Y342900D02*
X387096Y342900D01*
X387096Y368300D02*
X400304Y368300D01*
X400304Y393700D02*
X387096Y393700D01*
X387096Y419100D02*
X400304Y419100D01*
X400304Y444500D02*
X387096Y444500D01*
X387096Y469900D02*
X400304Y469900D01*
X400304Y495300D02*
X387096Y495300D01*
X324104Y825500D02*
X310896Y825500D01*
X310896Y800100D02*
X324104Y800100D01*
X324104Y673100D02*
X310896Y673100D01*
X310896Y647700D02*
X324104Y647700D01*
X324104Y774700D02*
X310896Y774700D01*
X310896Y749300D02*
X324104Y749300D01*
X324104Y698500D02*
X310896Y698500D01*
X310896Y723900D02*
X324104Y723900D01*
X387096Y647700D02*
X400304Y647700D01*
X400304Y673100D02*
X387096Y673100D01*
X387096Y698500D02*
X400304Y698500D01*
X400304Y723900D02*
X387096Y723900D01*
X387096Y749300D02*
X400304Y749300D01*
X400304Y774700D02*
X387096Y774700D01*
X387096Y800100D02*
X400304Y800100D01*
X400304Y825500D02*
X387096Y825500D01*
X146304Y495300D02*
X133096Y495300D01*
X133096Y469900D02*
X146304Y469900D01*
X146304Y342900D02*
X133096Y342900D01*
X133096Y317500D02*
X146304Y317500D01*
X146304Y444500D02*
X133096Y444500D01*
X133096Y419100D02*
X146304Y419100D01*
X146304Y368300D02*
X133096Y368300D01*
X133096Y393700D02*
X146304Y393700D01*
X209296Y317500D02*
X222504Y317500D01*
X222504Y342900D02*
X209296Y342900D01*
X209296Y368300D02*
X222504Y368300D01*
X222504Y393700D02*
X209296Y393700D01*
X209296Y419100D02*
X222504Y419100D01*
X222504Y444500D02*
X209296Y444500D01*
X209296Y469900D02*
X222504Y469900D01*
X222504Y495300D02*
X209296Y495300D01*
X146304Y825500D02*
X133096Y825500D01*
X133096Y800100D02*
X146304Y800100D01*
X146304Y673100D02*
X133096Y673100D01*
X133096Y647700D02*
X146304Y647700D01*
X146304Y774700D02*
X133096Y774700D01*
X133096Y749300D02*
X146304Y749300D01*
X146304Y698500D02*
X133096Y698500D01*
X133096Y723900D02*
X146304Y723900D01*
X209296Y647700D02*
X222504Y647700D01*
X222504Y673100D02*
X209296Y673100D01*
X209296Y698500D02*
X222504Y698500D01*
X222504Y723900D02*
X209296Y723900D01*
X209296Y749300D02*
X222504Y749300D01*
X222504Y774700D02*
X209296Y774700D01*
X209296Y800100D02*
X222504Y800100D01*
X222504Y825500D02*
X209296Y825500D01*
X310896Y177800D02*
X324104Y177800D01*
X324104Y152400D02*
X310896Y152400D01*
X310896Y25400D02*
X324104Y25400D01*
X387096Y25400D02*
X400304Y25400D01*
X324104Y127000D02*
X310896Y127000D01*
X310896Y101600D02*
X324104Y101600D01*
X324104Y50800D02*
X310896Y50800D01*
X310896Y76200D02*
X324104Y76200D01*
X387096Y50800D02*
X400304Y50800D01*
X400304Y76200D02*
X387096Y76200D01*
X387096Y101600D02*
X400304Y101600D01*
X400304Y127000D02*
X387096Y127000D01*
X387096Y152400D02*
X400304Y152400D01*
X400304Y177800D02*
X387096Y177800D01*
D18*
X698500Y50800D03*
X673100Y50800D03*
X584200Y50800D03*
X558800Y50800D03*
D10*
X520700Y88900D03*
X520700Y12700D03*
X635000Y88900D03*
X635000Y12700D03*
D19*
X1127760Y198120D03*
X1258824Y198120D03*
X1271016Y530352D03*
X1338072Y484632D03*
X1289304Y536448D03*
X429768Y844296D03*
X530352Y841248D03*
X1252728Y865632D03*
X1158240Y368808D03*
X1158240Y569976D03*
X993648Y3048D03*
X880872Y155448D03*
X984504Y536448D03*
X1075944Y536448D03*
X1167384Y835152D03*
X1161288Y853440D03*
X1075944Y173736D03*
X1182624Y-9144D03*
X798576Y195072D03*
X993648Y231648D03*
X1066800Y231648D03*
X1298448Y527304D03*
X862584Y487680D03*
X1149096Y527304D03*
X1228344Y527304D03*
X1328928Y216408D03*
X890016Y490728D03*
X978408Y545592D03*
X1149096Y545592D03*
X1066800Y198120D03*
X1261872Y268224D03*
X1283208Y289560D03*
X1359408Y515112D03*
X890016Y94488D03*
X1066800Y512064D03*
X868680Y152400D03*
X1075944Y149352D03*
X1240536Y173736D03*
X1304544Y198120D03*
X1246632Y310896D03*
X1063752Y128016D03*
X1088136Y73152D03*
X1167384Y137160D03*
X1167384Y161544D03*
X1304544Y493776D03*
X1054608Y198120D03*
X1286256Y192024D03*
X646176Y426720D03*
X637032Y448056D03*
X804672Y374904D03*
X856488Y356616D03*
X624840Y722376D03*
X627888Y441960D03*
X618744Y448056D03*
X618744Y688848D03*
X947928Y432816D03*
X813816Y393192D03*
X737616Y362712D03*
X935736Y301752D03*
X591312Y609600D03*
X615696Y420624D03*
X618744Y390144D03*
X746760Y341376D03*
X746760Y316992D03*
X560832Y295656D03*
X899160Y207264D03*
X822960Y152400D03*
X682752Y137160D03*
X630936Y289560D03*
X612648Y295656D03*
X612648Y432816D03*
X725424Y274320D03*
X499872Y457200D03*
X518160Y484632D03*
X935736Y332232D03*
X746760Y249936D03*
X600456Y441960D03*
X530352Y771144D03*
X719328Y441960D03*
X670560Y481584D03*
X612648Y472440D03*
X868680Y338328D03*
X874776Y423672D03*
X457200Y752856D03*
X457200Y719328D03*
X463296Y521208D03*
X463296Y411480D03*
X460248Y316992D03*
X487680Y271272D03*
X454152Y512064D03*
X493776Y371856D03*
X472440Y551688D03*
X493776Y359664D03*
X521208Y603504D03*
X469392Y420624D03*
X469392Y277368D03*
X566928Y137160D03*
X615696Y185928D03*
X493776Y243840D03*
X478536Y396240D03*
X478536Y286512D03*
X213360Y886968D03*
X350520Y341376D03*
X124968Y862584D03*
X370332Y341376D03*
X295656Y871728D03*
X332232Y871728D03*
X341376Y505968D03*
X362712Y594360D03*
X417576Y868680D03*
X173736Y618744D03*
X176784Y816864D03*
X158496Y816864D03*
X158496Y844296D03*
X353568Y505968D03*
X371856Y600456D03*
X368808Y768096D03*
X963168Y716280D03*
X963168Y746760D03*
X1045464Y859536D03*
X1030224Y630936D03*
X1072896Y661416D03*
X1011936Y612648D03*
X1082040Y612648D03*
X1115568Y612648D03*
X1146048Y813816D03*
X1002792Y603504D03*
X515112Y252984D03*
X579120Y420624D03*
X554736Y448056D03*
X609600Y569976D03*
X295656Y859536D03*
X429768Y859536D03*
X499872Y938784D03*
X195072Y637032D03*
X448056Y621792D03*
X246888Y835152D03*
X295656Y883920D03*
X304800Y938784D03*
X374904Y432816D03*
X487680Y521208D03*
X182880Y493776D03*
X289560Y612648D03*
X374904Y612648D03*
X441960Y752856D03*
X548640Y883920D03*
X697992Y832104D03*
X365760Y420624D03*
X448056Y606552D03*
X478536Y637032D03*
X591312Y737616D03*
X697992Y743712D03*
X454152Y347472D03*
X484632Y353568D03*
X518160Y429768D03*
X664464Y569976D03*
X676656Y612648D03*
X487680Y533400D03*
X780288Y569976D03*
X804672Y569976D03*
X655320Y420624D03*
X710184Y448056D03*
X996696Y771144D03*
X813816Y256032D03*
X478536Y188976D03*
X472440Y213360D03*
X1417320Y210312D03*
X1185672Y603504D03*
X1085088Y661416D03*
X1075944Y725424D03*
M02*
