G04 EAGLE Gerber RS-274X export*
G75*
%MOMM*%
%FSLAX34Y34*%
%LPD*%
%INSoldermask Bottom*%
%IPPOS*%
%AMOC8*
5,1,8,0,0,1.08239X$1,22.5*%
G01*
%ADD10C,1.524000*%
%ADD11P,1.649562X8X22.500000*%
%ADD12P,1.649562X8X112.500000*%
%ADD13C,3.213100*%
%ADD14C,1.727200*%
%ADD15P,1.869504X8X112.500000*%
%ADD16C,0.959600*%


D10*
X787400Y1517396D02*
X787400Y1530604D01*
X812800Y1530604D02*
X812800Y1517396D01*
X838200Y1517396D02*
X838200Y1530604D01*
X863600Y1530604D02*
X863600Y1517396D01*
X889000Y1517396D02*
X889000Y1530604D01*
X889000Y1669796D02*
X889000Y1683004D01*
X863600Y1683004D02*
X863600Y1669796D01*
X838200Y1669796D02*
X838200Y1683004D01*
X812800Y1683004D02*
X812800Y1669796D01*
X787400Y1669796D02*
X787400Y1683004D01*
X609600Y1530604D02*
X609600Y1517396D01*
X635000Y1517396D02*
X635000Y1530604D01*
X660400Y1530604D02*
X660400Y1517396D01*
X685800Y1517396D02*
X685800Y1530604D01*
X711200Y1530604D02*
X711200Y1517396D01*
X711200Y1669796D02*
X711200Y1683004D01*
X685800Y1683004D02*
X685800Y1669796D01*
X660400Y1669796D02*
X660400Y1683004D01*
X635000Y1683004D02*
X635000Y1669796D01*
X609600Y1669796D02*
X609600Y1683004D01*
X431800Y1530604D02*
X431800Y1517396D01*
X457200Y1517396D02*
X457200Y1530604D01*
X482600Y1530604D02*
X482600Y1517396D01*
X508000Y1517396D02*
X508000Y1530604D01*
X533400Y1530604D02*
X533400Y1517396D01*
X533400Y1669796D02*
X533400Y1683004D01*
X508000Y1683004D02*
X508000Y1669796D01*
X482600Y1669796D02*
X482600Y1683004D01*
X457200Y1683004D02*
X457200Y1669796D01*
X431800Y1669796D02*
X431800Y1683004D01*
X254000Y1530604D02*
X254000Y1517396D01*
X279400Y1517396D02*
X279400Y1530604D01*
X304800Y1530604D02*
X304800Y1517396D01*
X330200Y1517396D02*
X330200Y1530604D01*
X355600Y1530604D02*
X355600Y1517396D01*
X355600Y1669796D02*
X355600Y1683004D01*
X330200Y1683004D02*
X330200Y1669796D01*
X304800Y1669796D02*
X304800Y1683004D01*
X279400Y1683004D02*
X279400Y1669796D01*
X254000Y1669796D02*
X254000Y1683004D01*
X1237996Y1435100D02*
X1251204Y1435100D01*
X1251204Y1409700D02*
X1237996Y1409700D01*
X1237996Y1384300D02*
X1251204Y1384300D01*
X1251204Y1358900D02*
X1237996Y1358900D01*
X1237996Y1333500D02*
X1251204Y1333500D01*
X1251204Y1308100D02*
X1237996Y1308100D01*
X1237996Y1282700D02*
X1251204Y1282700D01*
X1251204Y1257300D02*
X1237996Y1257300D01*
X1237996Y1231900D02*
X1251204Y1231900D01*
X1251204Y1206500D02*
X1237996Y1206500D01*
X1237996Y1181100D02*
X1251204Y1181100D01*
X1251204Y1155700D02*
X1237996Y1155700D01*
X1237996Y1130300D02*
X1251204Y1130300D01*
X1251204Y1104900D02*
X1237996Y1104900D01*
X1390396Y1104900D02*
X1403604Y1104900D01*
X1403604Y1130300D02*
X1390396Y1130300D01*
X1390396Y1155700D02*
X1403604Y1155700D01*
X1403604Y1181100D02*
X1390396Y1181100D01*
X1390396Y1206500D02*
X1403604Y1206500D01*
X1403604Y1231900D02*
X1390396Y1231900D01*
X1390396Y1257300D02*
X1403604Y1257300D01*
X1403604Y1282700D02*
X1390396Y1282700D01*
X1390396Y1308100D02*
X1403604Y1308100D01*
X1403604Y1333500D02*
X1390396Y1333500D01*
X1390396Y1358900D02*
X1403604Y1358900D01*
X1403604Y1384300D02*
X1390396Y1384300D01*
X1390396Y1409700D02*
X1403604Y1409700D01*
X1403604Y1435100D02*
X1390396Y1435100D01*
X451104Y1409700D02*
X437896Y1409700D01*
X437896Y1384300D02*
X451104Y1384300D01*
X451104Y1257300D02*
X437896Y1257300D01*
X437896Y1231900D02*
X451104Y1231900D01*
X451104Y1358900D02*
X437896Y1358900D01*
X437896Y1333500D02*
X451104Y1333500D01*
X451104Y1282700D02*
X437896Y1282700D01*
X437896Y1308100D02*
X451104Y1308100D01*
X514096Y1231900D02*
X527304Y1231900D01*
X527304Y1257300D02*
X514096Y1257300D01*
X514096Y1282700D02*
X527304Y1282700D01*
X527304Y1308100D02*
X514096Y1308100D01*
X514096Y1333500D02*
X527304Y1333500D01*
X527304Y1358900D02*
X514096Y1358900D01*
X514096Y1384300D02*
X527304Y1384300D01*
X527304Y1409700D02*
X514096Y1409700D01*
X273304Y1409700D02*
X260096Y1409700D01*
X260096Y1384300D02*
X273304Y1384300D01*
X273304Y1257300D02*
X260096Y1257300D01*
X260096Y1231900D02*
X273304Y1231900D01*
X273304Y1358900D02*
X260096Y1358900D01*
X260096Y1333500D02*
X273304Y1333500D01*
X273304Y1282700D02*
X260096Y1282700D01*
X260096Y1308100D02*
X273304Y1308100D01*
X336296Y1231900D02*
X349504Y1231900D01*
X349504Y1257300D02*
X336296Y1257300D01*
X336296Y1282700D02*
X349504Y1282700D01*
X349504Y1308100D02*
X336296Y1308100D01*
X336296Y1333500D02*
X349504Y1333500D01*
X349504Y1358900D02*
X336296Y1358900D01*
X336296Y1384300D02*
X349504Y1384300D01*
X349504Y1409700D02*
X336296Y1409700D01*
X856996Y1028700D02*
X870204Y1028700D01*
X870204Y1003300D02*
X856996Y1003300D01*
X856996Y876300D02*
X870204Y876300D01*
X870204Y850900D02*
X856996Y850900D01*
X856996Y977900D02*
X870204Y977900D01*
X870204Y952500D02*
X856996Y952500D01*
X856996Y901700D02*
X870204Y901700D01*
X870204Y927100D02*
X856996Y927100D01*
X933196Y850900D02*
X946404Y850900D01*
X946404Y876300D02*
X933196Y876300D01*
X933196Y901700D02*
X946404Y901700D01*
X946404Y927100D02*
X933196Y927100D01*
X933196Y952500D02*
X946404Y952500D01*
X946404Y977900D02*
X933196Y977900D01*
X933196Y1003300D02*
X946404Y1003300D01*
X946404Y1028700D02*
X933196Y1028700D01*
X870204Y774700D02*
X856996Y774700D01*
X856996Y749300D02*
X870204Y749300D01*
X870204Y622300D02*
X856996Y622300D01*
X856996Y596900D02*
X870204Y596900D01*
X870204Y723900D02*
X856996Y723900D01*
X856996Y698500D02*
X870204Y698500D01*
X870204Y647700D02*
X856996Y647700D01*
X856996Y673100D02*
X870204Y673100D01*
X933196Y596900D02*
X946404Y596900D01*
X946404Y622300D02*
X933196Y622300D01*
X933196Y647700D02*
X946404Y647700D01*
X946404Y673100D02*
X933196Y673100D01*
X933196Y698500D02*
X946404Y698500D01*
X946404Y723900D02*
X933196Y723900D01*
X933196Y749300D02*
X946404Y749300D01*
X946404Y774700D02*
X933196Y774700D01*
X616204Y647700D02*
X602996Y647700D01*
X602996Y622300D02*
X616204Y622300D01*
X616204Y495300D02*
X602996Y495300D01*
X679196Y495300D02*
X692404Y495300D01*
X616204Y596900D02*
X602996Y596900D01*
X602996Y571500D02*
X616204Y571500D01*
X616204Y520700D02*
X602996Y520700D01*
X602996Y546100D02*
X616204Y546100D01*
X679196Y520700D02*
X692404Y520700D01*
X692404Y546100D02*
X679196Y546100D01*
X679196Y571500D02*
X692404Y571500D01*
X692404Y596900D02*
X679196Y596900D01*
X679196Y622300D02*
X692404Y622300D01*
X692404Y647700D02*
X679196Y647700D01*
X1047496Y508000D02*
X1060704Y508000D01*
X1060704Y482600D02*
X1047496Y482600D01*
X1047496Y355600D02*
X1060704Y355600D01*
X1060704Y330200D02*
X1047496Y330200D01*
X1047496Y457200D02*
X1060704Y457200D01*
X1060704Y431800D02*
X1047496Y431800D01*
X1047496Y381000D02*
X1060704Y381000D01*
X1060704Y406400D02*
X1047496Y406400D01*
X1123696Y330200D02*
X1136904Y330200D01*
X1136904Y355600D02*
X1123696Y355600D01*
X1123696Y381000D02*
X1136904Y381000D01*
X1136904Y406400D02*
X1123696Y406400D01*
X1123696Y431800D02*
X1136904Y431800D01*
X1136904Y457200D02*
X1123696Y457200D01*
X1123696Y482600D02*
X1136904Y482600D01*
X1136904Y508000D02*
X1123696Y508000D01*
X1060704Y241300D02*
X1047496Y241300D01*
X1047496Y215900D02*
X1060704Y215900D01*
X1060704Y88900D02*
X1047496Y88900D01*
X1047496Y63500D02*
X1060704Y63500D01*
X1060704Y190500D02*
X1047496Y190500D01*
X1047496Y165100D02*
X1060704Y165100D01*
X1060704Y114300D02*
X1047496Y114300D01*
X1047496Y139700D02*
X1060704Y139700D01*
X1123696Y63500D02*
X1136904Y63500D01*
X1136904Y88900D02*
X1123696Y88900D01*
X1123696Y114300D02*
X1136904Y114300D01*
X1136904Y139700D02*
X1123696Y139700D01*
X1123696Y165100D02*
X1136904Y165100D01*
X1136904Y190500D02*
X1123696Y190500D01*
X1123696Y215900D02*
X1136904Y215900D01*
X1136904Y241300D02*
X1123696Y241300D01*
X870204Y508000D02*
X856996Y508000D01*
X856996Y482600D02*
X870204Y482600D01*
X870204Y355600D02*
X856996Y355600D01*
X856996Y330200D02*
X870204Y330200D01*
X870204Y457200D02*
X856996Y457200D01*
X856996Y431800D02*
X870204Y431800D01*
X870204Y381000D02*
X856996Y381000D01*
X856996Y406400D02*
X870204Y406400D01*
X933196Y330200D02*
X946404Y330200D01*
X946404Y355600D02*
X933196Y355600D01*
X933196Y381000D02*
X946404Y381000D01*
X946404Y406400D02*
X933196Y406400D01*
X933196Y431800D02*
X946404Y431800D01*
X946404Y457200D02*
X933196Y457200D01*
X933196Y482600D02*
X946404Y482600D01*
X946404Y508000D02*
X933196Y508000D01*
X870204Y241300D02*
X856996Y241300D01*
X856996Y215900D02*
X870204Y215900D01*
X870204Y88900D02*
X856996Y88900D01*
X856996Y63500D02*
X870204Y63500D01*
X870204Y190500D02*
X856996Y190500D01*
X856996Y165100D02*
X870204Y165100D01*
X870204Y114300D02*
X856996Y114300D01*
X856996Y139700D02*
X870204Y139700D01*
X933196Y63500D02*
X946404Y63500D01*
X946404Y88900D02*
X933196Y88900D01*
X933196Y114300D02*
X946404Y114300D01*
X946404Y139700D02*
X933196Y139700D01*
X933196Y165100D02*
X946404Y165100D01*
X946404Y190500D02*
X933196Y190500D01*
X933196Y215900D02*
X946404Y215900D01*
X946404Y241300D02*
X933196Y241300D01*
X1047496Y1028700D02*
X1060704Y1028700D01*
X1060704Y1003300D02*
X1047496Y1003300D01*
X1047496Y876300D02*
X1060704Y876300D01*
X1060704Y850900D02*
X1047496Y850900D01*
X1047496Y977900D02*
X1060704Y977900D01*
X1060704Y952500D02*
X1047496Y952500D01*
X1047496Y901700D02*
X1060704Y901700D01*
X1060704Y927100D02*
X1047496Y927100D01*
X1123696Y850900D02*
X1136904Y850900D01*
X1136904Y876300D02*
X1123696Y876300D01*
X1123696Y901700D02*
X1136904Y901700D01*
X1136904Y927100D02*
X1123696Y927100D01*
X1123696Y952500D02*
X1136904Y952500D01*
X1136904Y977900D02*
X1123696Y977900D01*
X1123696Y1003300D02*
X1136904Y1003300D01*
X1136904Y1028700D02*
X1123696Y1028700D01*
X1060704Y774700D02*
X1047496Y774700D01*
X1047496Y749300D02*
X1060704Y749300D01*
X1060704Y622300D02*
X1047496Y622300D01*
X1047496Y596900D02*
X1060704Y596900D01*
X1060704Y723900D02*
X1047496Y723900D01*
X1047496Y698500D02*
X1060704Y698500D01*
X1060704Y647700D02*
X1047496Y647700D01*
X1047496Y673100D02*
X1060704Y673100D01*
X1123696Y596900D02*
X1136904Y596900D01*
X1136904Y622300D02*
X1123696Y622300D01*
X1123696Y647700D02*
X1136904Y647700D01*
X1136904Y673100D02*
X1123696Y673100D01*
X1123696Y698500D02*
X1136904Y698500D01*
X1136904Y723900D02*
X1123696Y723900D01*
X1123696Y749300D02*
X1136904Y749300D01*
X1136904Y774700D02*
X1123696Y774700D01*
X311404Y342900D02*
X298196Y342900D01*
X298196Y317500D02*
X311404Y317500D01*
X311404Y190500D02*
X298196Y190500D01*
X298196Y165100D02*
X311404Y165100D01*
X311404Y292100D02*
X298196Y292100D01*
X298196Y266700D02*
X311404Y266700D01*
X311404Y215900D02*
X298196Y215900D01*
X298196Y241300D02*
X311404Y241300D01*
X374396Y165100D02*
X387604Y165100D01*
X387604Y190500D02*
X374396Y190500D01*
X374396Y215900D02*
X387604Y215900D01*
X387604Y241300D02*
X374396Y241300D01*
X374396Y266700D02*
X387604Y266700D01*
X387604Y292100D02*
X374396Y292100D01*
X374396Y317500D02*
X387604Y317500D01*
X387604Y342900D02*
X374396Y342900D01*
X311404Y571500D02*
X298196Y571500D01*
X298196Y546100D02*
X311404Y546100D01*
X311404Y419100D02*
X298196Y419100D01*
X298196Y393700D02*
X311404Y393700D01*
X311404Y520700D02*
X298196Y520700D01*
X298196Y495300D02*
X311404Y495300D01*
X311404Y444500D02*
X298196Y444500D01*
X298196Y469900D02*
X311404Y469900D01*
X374396Y393700D02*
X387604Y393700D01*
X387604Y419100D02*
X374396Y419100D01*
X374396Y444500D02*
X387604Y444500D01*
X387604Y469900D02*
X374396Y469900D01*
X374396Y495300D02*
X387604Y495300D01*
X387604Y520700D02*
X374396Y520700D01*
X374396Y546100D02*
X387604Y546100D01*
X387604Y571500D02*
X374396Y571500D01*
X311404Y800100D02*
X298196Y800100D01*
X298196Y774700D02*
X311404Y774700D01*
X311404Y647700D02*
X298196Y647700D01*
X298196Y622300D02*
X311404Y622300D01*
X311404Y749300D02*
X298196Y749300D01*
X298196Y723900D02*
X311404Y723900D01*
X311404Y673100D02*
X298196Y673100D01*
X298196Y698500D02*
X311404Y698500D01*
X374396Y622300D02*
X387604Y622300D01*
X387604Y647700D02*
X374396Y647700D01*
X374396Y673100D02*
X387604Y673100D01*
X387604Y698500D02*
X374396Y698500D01*
X374396Y723900D02*
X387604Y723900D01*
X387604Y749300D02*
X374396Y749300D01*
X374396Y774700D02*
X387604Y774700D01*
X387604Y800100D02*
X374396Y800100D01*
X311404Y1028700D02*
X298196Y1028700D01*
X298196Y1003300D02*
X311404Y1003300D01*
X311404Y876300D02*
X298196Y876300D01*
X298196Y850900D02*
X311404Y850900D01*
X311404Y977900D02*
X298196Y977900D01*
X298196Y952500D02*
X311404Y952500D01*
X311404Y901700D02*
X298196Y901700D01*
X298196Y927100D02*
X311404Y927100D01*
X374396Y850900D02*
X387604Y850900D01*
X387604Y876300D02*
X374396Y876300D01*
X374396Y901700D02*
X387604Y901700D01*
X387604Y927100D02*
X374396Y927100D01*
X374396Y952500D02*
X387604Y952500D01*
X387604Y977900D02*
X374396Y977900D01*
X374396Y1003300D02*
X387604Y1003300D01*
X387604Y1028700D02*
X374396Y1028700D01*
X793496Y1409700D02*
X806704Y1409700D01*
X806704Y1384300D02*
X793496Y1384300D01*
X793496Y1257300D02*
X806704Y1257300D01*
X806704Y1231900D02*
X793496Y1231900D01*
X793496Y1358900D02*
X806704Y1358900D01*
X806704Y1333500D02*
X793496Y1333500D01*
X793496Y1282700D02*
X806704Y1282700D01*
X806704Y1308100D02*
X793496Y1308100D01*
X869696Y1231900D02*
X882904Y1231900D01*
X882904Y1257300D02*
X869696Y1257300D01*
X869696Y1282700D02*
X882904Y1282700D01*
X882904Y1308100D02*
X869696Y1308100D01*
X869696Y1333500D02*
X882904Y1333500D01*
X882904Y1358900D02*
X869696Y1358900D01*
X869696Y1384300D02*
X882904Y1384300D01*
X882904Y1409700D02*
X869696Y1409700D01*
X628904Y1409700D02*
X615696Y1409700D01*
X615696Y1384300D02*
X628904Y1384300D01*
X628904Y1257300D02*
X615696Y1257300D01*
X615696Y1231900D02*
X628904Y1231900D01*
X628904Y1358900D02*
X615696Y1358900D01*
X615696Y1333500D02*
X628904Y1333500D01*
X628904Y1282700D02*
X615696Y1282700D01*
X615696Y1308100D02*
X628904Y1308100D01*
X691896Y1231900D02*
X705104Y1231900D01*
X705104Y1257300D02*
X691896Y1257300D01*
X691896Y1282700D02*
X705104Y1282700D01*
X705104Y1308100D02*
X691896Y1308100D01*
X691896Y1333500D02*
X705104Y1333500D01*
X705104Y1358900D02*
X691896Y1358900D01*
X691896Y1384300D02*
X705104Y1384300D01*
X705104Y1409700D02*
X691896Y1409700D01*
D11*
X1473200Y1651000D03*
X1498600Y1651000D03*
X1092200Y1651000D03*
X1117600Y1651000D03*
X1409700Y1651000D03*
X1435100Y1651000D03*
X1346200Y1651000D03*
X1371600Y1651000D03*
X1282700Y1651000D03*
X1308100Y1651000D03*
X1219200Y1651000D03*
X1244600Y1651000D03*
X1155700Y1651000D03*
X1181100Y1651000D03*
X1028700Y1651000D03*
X1054100Y1651000D03*
D12*
X1498600Y1524000D03*
X1498600Y1600200D03*
X1117600Y1524000D03*
X1117600Y1600200D03*
X1435100Y1524000D03*
X1435100Y1600200D03*
X1371600Y1524000D03*
X1371600Y1600200D03*
X1308100Y1524000D03*
X1308100Y1600200D03*
X1244600Y1524000D03*
X1244600Y1600200D03*
X1181100Y1524000D03*
X1181100Y1600200D03*
X1054100Y1524000D03*
X1054100Y1600200D03*
D13*
X116650Y1572768D02*
X86551Y1572768D01*
X86551Y1612900D02*
X116650Y1612900D01*
X116650Y1653032D02*
X86551Y1653032D01*
D10*
X602996Y901700D02*
X616204Y901700D01*
X616204Y876300D02*
X602996Y876300D01*
X602996Y749300D02*
X616204Y749300D01*
X679196Y749300D02*
X692404Y749300D01*
X616204Y850900D02*
X602996Y850900D01*
X602996Y825500D02*
X616204Y825500D01*
X616204Y774700D02*
X602996Y774700D01*
X602996Y800100D02*
X616204Y800100D01*
X679196Y774700D02*
X692404Y774700D01*
X692404Y800100D02*
X679196Y800100D01*
X679196Y825500D02*
X692404Y825500D01*
X692404Y850900D02*
X679196Y850900D01*
X679196Y876300D02*
X692404Y876300D01*
X692404Y901700D02*
X679196Y901700D01*
D14*
X1478280Y914400D02*
X1493520Y914400D01*
X1493520Y889000D02*
X1478280Y889000D01*
X1478280Y863600D02*
X1493520Y863600D01*
X1493520Y838200D02*
X1478280Y838200D01*
X1478280Y812800D02*
X1493520Y812800D01*
X1493520Y787400D02*
X1478280Y787400D01*
X1478280Y762000D02*
X1493520Y762000D01*
X1493520Y736600D02*
X1478280Y736600D01*
D15*
X1485900Y203200D03*
X1485900Y228600D03*
X1485900Y254000D03*
X1485900Y279400D03*
X1485900Y304800D03*
X1485900Y330200D03*
X1460500Y203200D03*
X1460500Y228600D03*
X1460500Y254000D03*
X1460500Y279400D03*
X1460500Y304800D03*
X1460500Y330200D03*
X1485900Y355600D03*
X1485900Y381000D03*
X1460500Y355600D03*
X1460500Y381000D03*
D14*
X134620Y1270000D02*
X119380Y1270000D01*
X119380Y1244600D02*
X134620Y1244600D01*
X134620Y1219200D02*
X119380Y1219200D01*
X119380Y1193800D02*
X134620Y1193800D01*
X134620Y1333500D02*
X119380Y1333500D01*
X119380Y1358900D02*
X134620Y1358900D01*
X134620Y1409700D02*
X119380Y1409700D01*
X119380Y1435100D02*
X134620Y1435100D01*
D15*
X114300Y622300D03*
X114300Y647700D03*
X114300Y673100D03*
X114300Y698500D03*
X114300Y723900D03*
X114300Y749300D03*
X88900Y622300D03*
X88900Y647700D03*
X88900Y673100D03*
X88900Y698500D03*
X88900Y723900D03*
X88900Y749300D03*
X114300Y774700D03*
X114300Y800100D03*
X88900Y774700D03*
X88900Y800100D03*
D16*
X1365758Y1401953D03*
X1163066Y943483D03*
X1346454Y1204087D03*
X1341628Y1235456D03*
X1336802Y1264412D03*
X1097915Y313690D03*
X1382649Y313690D03*
X1404366Y282321D03*
X1020699Y152019D03*
X1076198Y139954D03*
X1097915Y376428D03*
X1023112Y871093D03*
X680466Y723900D03*
X1331976Y1319911D03*
X275082Y1435735D03*
X1283716Y1155827D03*
X1271651Y1143762D03*
X1138936Y1141349D03*
X673227Y1141349D03*
X530860Y1194435D03*
X1399540Y1479169D03*
X989330Y1636014D03*
X441579Y1693926D03*
X1317498Y1346454D03*
X1276477Y1346454D03*
X1023112Y1346454D03*
X938657Y1266825D03*
X646684Y1030351D03*
X209931Y1184783D03*
X238887Y1435735D03*
X1327150Y1356106D03*
X1196848Y1517777D03*
X395732Y1385062D03*
X1370584Y1430909D03*
X868680Y1445387D03*
X690118Y1450213D03*
X620141Y1435735D03*
X475361Y1261999D03*
X296799Y1184783D03*
X296799Y1196848D03*
X323342Y1196848D03*
X359537Y588772D03*
X364363Y810768D03*
X412623Y825246D03*
X412623Y854202D03*
X431927Y1071372D03*
X1184783Y1245108D03*
X1105154Y1194435D03*
X690118Y1151001D03*
X335407Y991743D03*
X868680Y1435735D03*
X803529Y1440561D03*
X277495Y762508D03*
X325755Y1001395D03*
X868680Y1426083D03*
X716661Y1428496D03*
X402971Y1025525D03*
X530860Y1182370D03*
X982091Y1317498D03*
X663575Y1054481D03*
X1027938Y1271651D03*
X1044829Y1254760D03*
X1201674Y1204087D03*
X851789Y1206500D03*
X801116Y1216152D03*
X878332Y299212D03*
X902462Y299212D03*
X1023112Y402971D03*
X895223Y246126D03*
X902462Y265430D03*
X1023112Y361950D03*
X605663Y263017D03*
X878332Y419862D03*
X1097915Y304038D03*
X1117219Y299212D03*
X842137Y460883D03*
X902462Y446405D03*
X1023112Y446405D03*
X1093089Y436753D03*
X675640Y282321D03*
X844550Y277495D03*
X897636Y219583D03*
X668401Y212344D03*
X1283716Y57912D03*
X803529Y171323D03*
X1083437Y91694D03*
X1093089Y110998D03*
X516382Y564642D03*
X789051Y460883D03*
X504317Y564642D03*
X808355Y400558D03*
X393319Y735965D03*
X412623Y735965D03*
X808355Y357124D03*
X878332Y313690D03*
X902462Y313690D03*
X415036Y745617D03*
X685292Y480187D03*
X878332Y443992D03*
X837311Y287147D03*
X767334Y287147D03*
X335407Y803529D03*
X282321Y878332D03*
X685292Y316103D03*
X687705Y470535D03*
X412623Y883158D03*
X803529Y202692D03*
X554990Y475361D03*
X583946Y591185D03*
X422275Y861441D03*
X1107567Y610489D03*
X1172718Y513969D03*
X1100328Y878332D03*
X1143762Y890397D03*
X1119632Y834898D03*
X1076198Y513969D03*
X1165479Y294386D03*
X1177544Y378841D03*
X1192022Y588772D03*
X1192022Y731139D03*
X1095502Y685292D03*
X1155827Y378841D03*
X1167892Y533273D03*
X822833Y509143D03*
X818007Y574294D03*
X822833Y851789D03*
X822833Y892810D03*
X818007Y424688D03*
X798703Y593598D03*
X822833Y839724D03*
X832485Y883158D03*
X798703Y528447D03*
X789051Y596011D03*
X803529Y755269D03*
X837311Y554990D03*
X866267Y825246D03*
X808355Y579120D03*
X822833Y685292D03*
X789051Y564642D03*
X818007Y605663D03*
X786638Y605663D03*
X798703Y617728D03*
X827659Y533273D03*
X253365Y417449D03*
M02*
