M48
;GenerationSoftware,Autodesk,EAGLE,9.3.2*%
;CreationDate,2019-07-22T09:05:43Z*%
FMAT,2
ICI,OFF
METRIC,TZ,000.000
T3C0.350
T2C0.813
T1C1.016
%
G90
M71
T1
X129540Y124460
X129540Y121920
X129540Y119380
X129540Y116840
X129540Y114300
X129540Y97790
X129540Y95250
X129540Y105410
X129540Y107950
X129540Y86360
X128270Y149860
X130810Y149860
X129540Y67310
X129540Y69850
X129540Y48260
X129540Y50800
X129540Y53340
X129540Y132080
X129540Y129540
X129540Y127000
T2
X64770Y91440
X64770Y93980
X72390Y86360
X72390Y88900
X72390Y91440
X72390Y93980
X72390Y96520
X72390Y99060
X72390Y101600
X72390Y104140
X64770Y137160
X64770Y134620
X64770Y121920
X64770Y132080
X64770Y129540
X64770Y124460
X64770Y127000
X72390Y119380
X72390Y121920
X72390Y124460
X72390Y127000
X72390Y129540
X72390Y132080
X72390Y134620
X72390Y137160
X83820Y137160
X83820Y134620
X83820Y121920
X83820Y119380
X83820Y132080
X83820Y129540
X83820Y124460
X83820Y127000
X91440Y119380
X91440Y121920
X91440Y124460
X91440Y127000
X91440Y129540
X91440Y132080
X91440Y134620
X91440Y137160
X17780Y146050
X20320Y146050
X22860Y146050
X25400Y146050
X27940Y146050
X27940Y161290
X25400Y161290
X22860Y161290
X20320Y161290
X17780Y161290
X38100Y146050
X40640Y146050
X43180Y146050
X45720Y146050
X48260Y146050
X48260Y161290
X45720Y161290
X43180Y161290
X40640Y161290
X38100Y161290
X19050Y104140
X19050Y101600
X19050Y88900
X19050Y86360
X19050Y99060
X39370Y35560
X19050Y96520
X19050Y91440
X19050Y93980
X26670Y86360
X26670Y88900
X26670Y91440
X26670Y93980
X26670Y96520
X26670Y99060
X26670Y101600
X26670Y104140
X39370Y104140
X39370Y88900
X39370Y86360
X39370Y99060
X39370Y96520
X39370Y91440
X39370Y93980
X46990Y86360
X46990Y88900
X46990Y91440
X46990Y93980
X46990Y96520
X46990Y99060
X46990Y101600
X46990Y104140
X19050Y137160
X19050Y134620
X19050Y121920
X19050Y119380
X19050Y132080
X19050Y129540
X19050Y124460
X19050Y127000
X26670Y119380
X26670Y121920
X26670Y124460
X26670Y127000
X26670Y129540
X26670Y132080
X26670Y134620
X26670Y137160
X39370Y137160
X39370Y134620
X39370Y121920
X39370Y119380
X39370Y132080
X39370Y129540
X39370Y124460
X39370Y127000
X46990Y119380
X46990Y121920
X46990Y124460
X46990Y127000
X46990Y129540
X46990Y132080
X46990Y134620
X46990Y137160
X39370Y101600
X38100Y11430
X40640Y11430
X43180Y11430
X45720Y11430
X48260Y11430
X48260Y26670
X45720Y26670
X43180Y26670
X40640Y26670
X38100Y26670
X17780Y11430
X20320Y11430
X22860Y11430
X25400Y11430
X27940Y11430
X27940Y26670
X25400Y26670
X22860Y26670
X20320Y26670
X17780Y26670
X19050Y77470
X19050Y74930
X19050Y62230
X26670Y62230
X19050Y72390
X19050Y69850
X19050Y64770
X19050Y67310
X26670Y64770
X26670Y67310
X26670Y69850
X26670Y72390
X26670Y74930
X26670Y77470
X39370Y77470
X39370Y74930
X39370Y62230
X46990Y62230
X39370Y72390
X39370Y69850
X39370Y64770
X39370Y67310
X46990Y64770
X46990Y67310
X46990Y69850
X46990Y72390
X46990Y74930
X46990Y77470
X64770Y77470
X64770Y74930
X64770Y62230
X64770Y59690
X64770Y72390
X64770Y69850
X64770Y64770
X64770Y67310
X72390Y59690
X72390Y62230
X72390Y64770
X72390Y67310
X72390Y69850
X72390Y72390
X72390Y74930
X72390Y77470
X85090Y104140
X85090Y101600
X85090Y88900
X85090Y86360
X85090Y99060
X85090Y96520
X85090Y91440
X85090Y93980
X92710Y86360
X92710Y88900
X92710Y91440
X92710Y93980
X92710Y96520
X92710Y99060
X92710Y101600
X92710Y104140
X109220Y77470
X109220Y74930
X109220Y62230
X109220Y59690
X109220Y72390
X109220Y69850
X109220Y64770
X109220Y67310
X116840Y59690
X116840Y62230
X116840Y64770
X116840Y67310
X116840Y69850
X116840Y72390
X116840Y74930
X116840Y77470
X109220Y50800
X109220Y48260
X109220Y35560
X109220Y33020
X109220Y45720
X109220Y43180
X109220Y38100
X109220Y40640
X109220Y30480
X109220Y27940
X116840Y27940
X116840Y30480
X116840Y33020
X116840Y35560
X116840Y38100
X116840Y40640
X116840Y43180
X116840Y45720
X116840Y48260
X116840Y50800
X39370Y53340
X39370Y50800
X39370Y38100
X64770Y119380
X39370Y48260
X39370Y45720
X39370Y40640
X39370Y43180
X46990Y35560
X46990Y38100
X46990Y40640
X46990Y43180
X46990Y45720
X46990Y48260
X46990Y50800
X46990Y53340
X19050Y53340
X19050Y50800
X19050Y38100
X19050Y35560
X19050Y48260
X19050Y45720
X19050Y40640
X19050Y43180
X26670Y35560
X26670Y38100
X26670Y40640
X26670Y43180
X26670Y45720
X26670Y48260
X26670Y50800
X26670Y53340
X85090Y50800
X85090Y48260
X85090Y35560
X92710Y35560
X85090Y45720
X85090Y43180
X85090Y38100
X85090Y40640
X92710Y38100
X92710Y40640
X92710Y43180
X92710Y45720
X92710Y48260
X92710Y50800
X64770Y50800
X64770Y48260
X64770Y35560
X72390Y35560
X64770Y45720
X64770Y43180
X64770Y38100
X64770Y40640
X72390Y38100
X72390Y40640
X72390Y43180
X72390Y45720
X72390Y48260
X72390Y50800
X63500Y146050
X66040Y146050
X68580Y146050
X71120Y146050
X73660Y146050
X73660Y161290
X71120Y161290
X68580Y161290
X66040Y161290
X63500Y161290
X82550Y146050
X85090Y146050
X87630Y146050
X90170Y146050
X92710Y146050
X92710Y161290
X90170Y161290
X87630Y161290
X85090Y161290
X82550Y161290
X109220Y137160
X109220Y134620
X109220Y121920
X109220Y119380
X109220Y132080
X109220Y129540
X109220Y124460
X109220Y127000
X109220Y116840
X109220Y114300
X116840Y114300
X116840Y116840
X116840Y119380
X116840Y121920
X116840Y124460
X116840Y127000
X116840Y129540
X116840Y132080
X116840Y134620
X116840Y137160
X109220Y104140
X109220Y101600
X109220Y88900
X109220Y86360
X109220Y99060
X109220Y96520
X109220Y91440
X109220Y93980
X116840Y86360
X116840Y88900
X116840Y91440
X116840Y93980
X116840Y96520
X116840Y99060
X116840Y101600
X116840Y104140
X64770Y104140
X64770Y101600
X64770Y88900
X64770Y86360
X64770Y99060
X64770Y96520
T3
X23165Y54864
X114300Y89611
X100584Y52426
X99670Y41148
X132283Y46330
X125578Y45415
X68275Y86258
X124968Y44501
X71018Y82296
X123749Y43891
X114300Y103937
X120091Y93878
X115214Y105156
X120701Y90830
X121006Y96012
X121310Y88087
X124358Y92964
X125882Y91440
X57912Y87782
X66751Y112471
X73762Y106985
X81991Y106375
X94488Y80162
X82601Y82601
X78029Y86563
X78029Y98146
X112471Y105156
X62484Y86868
X68885Y75590
X68580Y84734
X70714Y87478
X82906Y84430
X89611Y118262
X75590Y103937
X74371Y92659
X99670Y116434
X74676Y99060
X74676Y104546
X96012Y101194
X86563Y107899
X84734Y109728
X99060Y118262
X92659Y111862
X86258Y118262
X67970Y97231
X67970Y102718
X79858Y96926
X73762Y100279
X71018Y139903
X64313Y139903
X79858Y103632
X71933Y106070
X67361Y106680
X89002Y120091
X76810Y117348
X69190Y120091
X80467Y138074
X81382Y137465
X67666Y138074
X67056Y137160
X96012Y154838
X96012Y159106
X87478Y138074
X79248Y82906
X33833Y110947
X33833Y114300
X25298Y113386
X29870Y105766
X51206Y82296
X44501Y92050
X30785Y106680
X49682Y80772
X43891Y95707
X51816Y70714
X58522Y86868
X58826Y100889
X58826Y105156
X65837Y115214
X73152Y115519
X76505Y114605
X78334Y112776
X76200Y108204
X75590Y105156
X78638Y102108
X82601Y96622
X61570Y85344
X56998Y99974
X57912Y103327
X65532Y113690
X73762Y114605
X76505Y113386
X80162Y109728
X81686Y108814
X79553Y106680
X80772Y105461
X59741Y86868
X66751Y107594
X69190Y107594
X75590Y112471
X79248Y108814
X85344Y107899
X41453Y80162
X55778Y86868
X66751Y113690
X73762Y108204
X88087Y107594
X90526Y105156
X31394Y67056
X46939Y60350
X61570Y74676
X69190Y62179
X89306Y91745
X121920Y81991
X104851Y27127
X78943Y85039
X110642Y52730
X112471Y50902
X114605Y48768
X89306Y77724
X111252Y32004
X90221Y85344
X122530Y54254
X42367Y39319
X95707Y40538
X95402Y42977
X28042Y116129
X82906Y79248
X70104Y93574
X63398Y90221
X61570Y88697
X60655Y86258
X60655Y78334
X61570Y72542
X100584Y40538
X62179Y32614
X44501Y48768
X50292Y35966
X50292Y37795
X121920Y80772
X103327Y39319
X113081Y39929
X62789Y34442
X112166Y34138
X71018Y78943
X104242Y33528
X112776Y70104
M30