M48
;GenerationSoftware,Autodesk,EAGLE,9.3.2*%
;CreationDate,2019-07-10T12:57:01Z*%
FMAT,2
ICI,OFF
METRIC,TZ,000.000
T3C0.350
T2C0.813
T1C1.016
%
G90
M71
T1
X129540Y107950
X129540Y86360
X128270Y149860
X130810Y149860
X129540Y67310
X129540Y69850
X129540Y48260
X129540Y50800
X129540Y53340
X129540Y132080
X129540Y129540
X129540Y127000
X129540Y124460
X129540Y121920
X129540Y119380
X129540Y116840
X129540Y114300
X129540Y97790
X129540Y95250
X129540Y105410
T2
X26670Y62230
X20320Y161290
X17780Y161290
X38100Y146050
X40640Y146050
X43180Y146050
X45720Y146050
X48260Y146050
X48260Y161290
X45720Y161290
X43180Y161290
X40640Y161290
X38100Y161290
X19050Y104140
X19050Y101600
X19050Y88900
X19050Y86360
X19050Y99060
X19050Y96520
X19050Y91440
X19050Y93980
X26670Y86360
X26670Y88900
X26670Y91440
X26670Y93980
X26670Y96520
X26670Y99060
X26670Y101600
X26670Y104140
X39370Y104140
X39370Y101600
X39370Y88900
X39370Y86360
X39370Y99060
X39370Y96520
X39370Y91440
X46990Y86360
X46990Y88900
X46990Y91440
X46990Y93980
X46990Y96520
X46990Y99060
X46990Y101600
X46990Y104140
X19050Y137160
X19050Y134620
X19050Y121920
X19050Y119380
X19050Y132080
X19050Y129540
X19050Y124460
X19050Y127000
X26670Y119380
X26670Y121920
X26670Y124460
X26670Y127000
X26670Y129540
X26670Y132080
X26670Y134620
X26670Y137160
X26670Y43180
X39370Y137160
X39370Y134620
X39370Y121920
X39370Y119380
X39370Y132080
X39370Y129540
X39370Y124460
X39370Y127000
X46990Y119380
X46990Y121920
X46990Y124460
X46990Y127000
X46990Y129540
X46990Y132080
X46990Y134620
X46990Y137160
X39370Y93980
X38100Y11430
X40640Y11430
X43180Y11430
X45720Y11430
X48260Y11430
X48260Y26670
X45720Y26670
X43180Y26670
X40640Y26670
X38100Y26670
X17780Y11430
X20320Y11430
X22860Y11430
X25400Y11430
X27940Y11430
X27940Y26670
X25400Y26670
X22860Y26670
X20320Y26670
X17780Y26670
X19050Y77470
X19050Y74930
X19050Y62230
X19050Y72390
X19050Y69850
X19050Y64770
X19050Y67310
X26670Y64770
X26670Y67310
X26670Y69850
X26670Y72390
X26670Y74930
X26670Y77470
X39370Y77470
X39370Y74930
X39370Y62230
X46990Y62230
X39370Y72390
X39370Y69850
X39370Y64770
X39370Y67310
X46990Y64770
X46990Y67310
X46990Y69850
X46990Y72390
X46990Y74930
X46990Y77470
X64770Y77470
X64770Y74930
X64770Y62230
X64770Y59690
X64770Y72390
X64770Y69850
X64770Y64770
X64770Y67310
X72390Y59690
X72390Y62230
X72390Y64770
X72390Y67310
X72390Y69850
X72390Y72390
X72390Y74930
X72390Y77470
X85090Y104140
X85090Y101600
X85090Y88900
X85090Y86360
X85090Y99060
X85090Y96520
X85090Y91440
X85090Y93980
X92710Y86360
X92710Y88900
X92710Y91440
X92710Y93980
X92710Y96520
X92710Y99060
X92710Y101600
X92710Y104140
X109220Y77470
X109220Y74930
X109220Y62230
X109220Y59690
X109220Y72390
X109220Y69850
X109220Y64770
X109220Y67310
X116840Y59690
X116840Y62230
X116840Y64770
X116840Y67310
X116840Y69850
X116840Y72390
X116840Y74930
X116840Y77470
X109220Y50800
X109220Y48260
X109220Y35560
X109220Y33020
X109220Y45720
X109220Y43180
X109220Y38100
X109220Y40640
X109220Y30480
X109220Y27940
X116840Y27940
X116840Y30480
X116840Y33020
X116840Y35560
X116840Y38100
X116840Y40640
X116840Y43180
X116840Y45720
X116840Y48260
X116840Y50800
X39370Y53340
X39370Y50800
X39370Y38100
X39370Y35560
X39370Y48260
X39370Y45720
X39370Y40640
X39370Y43180
X46990Y35560
X46990Y38100
X46990Y40640
X46990Y43180
X46990Y45720
X46990Y48260
X46990Y50800
X46990Y53340
X19050Y53340
X19050Y50800
X19050Y38100
X19050Y35560
X19050Y48260
X19050Y45720
X19050Y40640
X19050Y43180
X26670Y35560
X26670Y38100
X26670Y40640
X72390Y137160
X26670Y45720
X26670Y48260
X26670Y50800
X26670Y53340
X85090Y50800
X85090Y48260
X85090Y35560
X92710Y35560
X85090Y45720
X85090Y43180
X85090Y38100
X85090Y40640
X92710Y38100
X92710Y40640
X92710Y43180
X92710Y45720
X92710Y48260
X92710Y50800
X64770Y50800
X64770Y48260
X64770Y35560
X72390Y35560
X64770Y45720
X64770Y43180
X64770Y38100
X64770Y40640
X72390Y38100
X72390Y40640
X72390Y43180
X72390Y45720
X72390Y48260
X72390Y50800
X63500Y146050
X66040Y146050
X68580Y146050
X71120Y146050
X73660Y146050
X73660Y161290
X71120Y161290
X68580Y161290
X66040Y161290
X63500Y161290
X82550Y146050
X85090Y146050
X87630Y146050
X90170Y146050
X92710Y146050
X92710Y161290
X90170Y161290
X87630Y161290
X85090Y161290
X82550Y161290
X109220Y137160
X109220Y134620
X109220Y121920
X109220Y119380
X109220Y132080
X109220Y129540
X109220Y124460
X109220Y127000
X109220Y116840
X109220Y114300
X116840Y114300
X116840Y116840
X116840Y119380
X116840Y121920
X116840Y124460
X116840Y127000
X116840Y129540
X116840Y132080
X116840Y134620
X116840Y137160
X109220Y104140
X109220Y101600
X109220Y88900
X109220Y86360
X109220Y99060
X109220Y96520
X109220Y91440
X109220Y93980
X116840Y86360
X116840Y88900
X116840Y91440
X116840Y93980
X116840Y96520
X116840Y99060
X116840Y101600
X116840Y104140
X64770Y104140
X64770Y101600
X64770Y88900
X64770Y86360
X64770Y99060
X64770Y96520
X64770Y91440
X64770Y93980
X72390Y86360
X72390Y88900
X72390Y91440
X72390Y93980
X72390Y96520
X72390Y99060
X72390Y101600
X72390Y104140
X64770Y137160
X64770Y134620
X64770Y121920
X64770Y119380
X64770Y132080
X64770Y129540
X64770Y124460
X64770Y127000
X72390Y119380
X72390Y121920
X72390Y124460
X72390Y127000
X72390Y129540
X72390Y132080
X72390Y134620
X83820Y137160
X83820Y134620
X83820Y121920
X83820Y119380
X83820Y132080
X83820Y129540
X83820Y124460
X83820Y127000
X91440Y119380
X91440Y121920
X91440Y124460
X91440Y127000
X91440Y129540
X91440Y132080
X91440Y134620
X91440Y137160
X17780Y146050
X20320Y146050
X22860Y146050
X25400Y146050
X27940Y146050
X27940Y161290
X25400Y161290
X22860Y161290
T3
X23647Y62738
X74562Y119926
X79629Y78905
X82283Y78905
X84214Y53327
X104724Y114859
X73114Y108344
X68529Y103759
X110515Y115583
X66116Y115100
X74562Y89522
X79629Y104724
X79629Y102311
X75527Y98209
X75527Y94348
X112204Y100139
X112204Y97968
X104242Y96279
X120891Y92659
X119926Y98692
X126441Y102311
X115824Y107137
X113170Y101105
X83249Y84214
X99174Y90729
X111239Y100863
X114135Y102794
X76733Y101829
X94348Y97726
X97485Y94590
X105448Y82525
X105689Y104724
X80112Y67323
X104483Y80353
X103035Y96279
X102794Y97244
X49708Y78181
X44882Y100863
X105207Y118720
X52362Y94348
X52362Y102552
X63462Y117996
X74562Y105931
X69977Y100139
X74562Y100622
X92659Y125717
X120409Y102070
X113652Y86868
X79870Y83249
X85420Y84455
X105207Y88316
X28473Y105207
X30404Y109068
X43917Y78181
X44882Y78181
X31369Y106896
X60566Y80112
X73597Y80112
X80353Y86868
X61531Y85903
X68047Y89040
X90487Y103276
X38367Y80112
X68771Y88316
X81559Y89522
X81077Y69253
X95072Y46571
X100381Y41262
X82525Y89281
X88798Y80353
X88798Y69253
X110515Y49708
X79388Y64427
X89522Y93624
X84214Y69253
X91453Y62014
X23647Y54292
X114617Y98933
X117754Y97726
X114617Y50673
X112446Y51397
X80353Y37884
X89522Y50914
X79146Y55982
X77699Y53569
X75044Y51156
X29921Y38125
X50190Y35471
X50190Y37643
X85179Y77940
X80112Y74803
X100139Y40297
X74803Y52121
X76492Y53569
X92659Y52362
X83007Y53327
X69012Y76733
M30